<!DOCTYPE svg PUBLIC "-//W3C//DTD SVG 20010904//EN" "http://www.w3.org/TR/2001/REC-SVG-20010904/DTD/svg10.dtd">
<svg version="1.0" xmlns="http://www.w3.org/2000/svg" width="32px" height="52px" viewBox="0 0 320 520" preserveAspectRatio="xMidYMid meet">
<g id="layer101" fill="#945a34" stroke="none">
 <path d="M113 505 c-18 -13 -20 -22 -15 -115 l5 -101 -36 17 c-58 28 -67 17 -67 -81 l0 -86 50 -21 c46 -19 50 -23 56 -63 3 -24 12 -46 20 -49 24 -9 44 5 44 30 0 13 5 24 10 24 6 0 10 -9 10 -20 0 -11 3 -20 7 -20 5 0 111 57 121 65 2 2 -86 165 -95 175 -2 2 -13 -2 -25 -9 -20 -12 -20 -12 -17 114 l4 127 -26 13 c-22 12 -29 12 -46 0z"/>
 </g>
<g id="layer102" fill="#bd7343" stroke="none">
 <path d="M140 446 c0 -80 9 -126 25 -126 8 0 14 26 18 83 4 67 2 84 -11 95 -27 21 -32 14 -32 -52z"/>
 <path d="M4 307 c-3 -8 -4 -49 -2 -92 l3 -79 65 -24 c36 -13 77 -29 91 -36 17 -9 32 -10 43 -4 13 7 16 4 16 -17 l0 -26 50 28 c27 15 49 30 47 33 -1 3 -22 43 -47 89 -33 61 -46 78 -48 62 -4 -26 -10 -26 -42 -1 -14 11 -28 20 -32 20 -4 0 -29 14 -55 30 -51 32 -81 38 -89 17z"/>
 <path d="M122 21 c-11 -7 -11 -9 2 -14 20 -8 48 2 40 14 -7 11 -25 11 -42 0z"/>
 </g>
<g id="layer103" fill="#f99958" stroke="none">
 <path d="M30 240 c0 -65 -3 -81 -17 -89 -15 -8 -11 -13 29 -30 26 -11 63 -23 83 -27 20 -3 42 -13 50 -20 9 -9 16 -10 20 -4 12 19 25 10 25 -16 l0 -26 48 28 c26 15 48 28 50 29 3 3 -77 148 -89 160 -6 5 -9 3 -9 -8 0 -9 -2 -17 -4 -17 -6 0 -99 53 -135 77 -19 13 -38 23 -42 23 -5 0 -9 -36 -9 -80z"/>
 </g>

</svg>