<!DOCTYPE svg PUBLIC "-//W3C//DTD SVG 20010904//EN" "http://www.w3.org/TR/2001/REC-SVG-20010904/DTD/svg10.dtd">
<svg version="1.0" xmlns="http://www.w3.org/2000/svg" width="68px" height="147px" viewBox="0 0 680 1470" preserveAspectRatio="xMidYMid meet">
<g id="layer101" fill="#21887d" stroke="none">
<path d="M293 1453 c-22 -3 -40 -14 -53 -34 -15 -20 -30 -29 -48 -29 -85 0 -95 -7 -141 -95 l-43 -83 46 -77 c25 -41 46 -80 46 -85 0 -5 -7 -24 -16 -42 -15 -33 -15 -34 29 -113 41 -73 47 -93 68 -222 17 -107 20 -149 13 -170 -9 -25 -2 -44 59 -168 69 -139 92 -213 61 -201 -11 4 -13 0 -8 -18 3 -15 -1 -34 -11 -50 -16 -24 -16 -26 1 -32 11 -3 30 -10 43 -15 25 -10 41 1 41 28 0 7 10 18 22 24 18 10 19 13 7 23 -8 7 -13 24 -11 43 2 18 -1 33 -6 33 -23 0 -18 36 28 195 26 93 46 174 44 180 -3 6 18 63 45 126 l49 114 -26 22 -25 21 37 126 c21 69 36 131 33 138 -2 7 18 57 45 112 27 54 48 99 46 100 -33 25 -305 156 -321 154 -12 0 -37 -3 -54 -5z"/>
</g>
<g id="layer102" fill="#6a6e5d" stroke="none">
<path d="M293 1453 c-22 -3 -40 -14 -53 -34 -15 -20 -30 -29 -48 -29 -85 0 -95 -7 -141 -95 -33 -64 -41 -87 -33 -101 8 -15 16 -5 53 61 l43 78 27 -82 c15 -46 29 -85 32 -87 3 -3 33 2 68 11 114 29 123 29 204 -4 41 -16 85 -38 98 -47 25 -19 19 -17 -77 22 l-69 27 -130 -29 -130 -29 -34 -68 c-21 -41 -32 -75 -28 -85 6 -15 8 -15 22 3 8 11 21 37 30 58 8 20 19 37 23 37 5 0 20 -35 34 -77 l26 -78 87 3 c89 4 100 1 175 -45 l37 -23 32 103 c17 56 33 118 35 138 1 20 23 78 49 129 25 50 45 93 43 94 -33 25 -305 156 -321 154 -12 0 -37 -3 -54 -5z"/>
<path d="M186 836 c-14 -25 -26 -49 -26 -55 0 -21 16 -11 35 22 l20 32 8 -95 c14 -165 12 -160 50 -149 18 6 40 15 51 20 13 7 16 7 11 0 -3 -6 1 -11 10 -11 10 0 13 5 9 12 -4 7 -3 8 5 4 23 -15 -8 -34 -75 -46 -64 -12 -67 -14 -84 -54 -16 -38 -17 -66 -1 -66 4 0 13 15 20 33 13 32 13 32 62 -119 45 -139 51 -151 73 -151 22 0 27 11 67 156 24 86 43 164 42 173 -2 9 19 68 46 130 27 62 47 116 44 120 -2 4 -34 26 -72 48 -66 40 -68 40 -168 40 l-101 0 -26 -44z"/>
</g>
<g id="layer103" fill="#d3452b" stroke="none">
<path d="M293 1453 c-22 -3 -40 -14 -53 -34 -15 -20 -30 -29 -48 -29 -85 0 -95 -7 -141 -95 -33 -63 -41 -87 -33 -100 8 -15 17 -4 53 64 l43 82 14 -48 c7 -26 20 -67 29 -91 15 -41 17 -42 52 -36 20 4 54 13 76 20 22 8 51 14 65 14 29 0 161 -52 193 -76 25 -19 19 -17 -77 22 l-69 27 -130 -29 -130 -29 -34 -68 c-21 -41 -32 -75 -28 -85 6 -15 8 -15 22 3 8 11 21 37 30 58 8 20 19 37 23 37 5 0 20 -35 34 -77 l26 -78 87 3 c89 4 100 1 175 -45 l37 -23 32 103 c17 56 33 118 35 138 1 20 23 78 49 129 25 50 45 93 43 94 -33 25 -305 156 -321 154 -12 0 -37 -3 -54 -5z"/>
<path d="M187 834 c-34 -57 -30 -82 5 -30 l26 37 6 -103 c4 -57 9 -115 12 -130 5 -25 7 -26 37 -17 18 6 40 15 51 20 13 7 16 7 11 0 -3 -6 1 -11 10 -11 10 0 13 5 9 12 -4 7 -3 8 5 4 23 -15 -8 -34 -75 -46 -64 -12 -67 -14 -84 -54 -16 -38 -17 -66 -1 -66 4 0 13 15 20 33 13 32 13 32 62 -119 45 -139 51 -151 73 -151 22 0 27 11 67 156 24 86 43 164 42 173 -2 9 19 68 46 130 27 62 47 116 44 120 -2 4 -35 26 -73 48 -67 39 -70 40 -167 40 l-98 0 -28 -46z"/>
</g>
<g id="layer104" fill="#ae6546" stroke="none">
<path d="M293 1453 c-21 -3 -39 -14 -52 -32 -17 -23 -30 -29 -77 -34 -66 -7 -71 -10 -56 -40 6 -12 20 -54 32 -93 31 -101 26 -98 101 -79 114 29 123 29 204 -4 41 -16 85 -38 98 -47 25 -19 19 -17 -77 22 l-69 27 -130 -29 -130 -29 -34 -68 c-21 -41 -32 -75 -28 -85 6 -15 8 -15 22 3 8 11 21 37 30 58 8 20 19 37 23 37 5 0 20 -35 34 -77 l26 -78 87 3 c89 4 100 1 175 -45 l37 -23 32 103 c17 56 33 118 35 138 1 20 23 78 49 129 25 50 45 93 43 94 -33 25 -305 156 -321 154 -12 0 -37 -3 -54 -5z"/>
<path d="M224 753 c10 -173 10 -174 49 -162 18 6 40 15 51 20 13 7 16 7 11 0 -3 -6 1 -11 10 -11 10 0 13 5 9 12 -4 7 -3 8 5 4 23 -15 -8 -34 -75 -46 -64 -12 -67 -14 -84 -54 -16 -38 -17 -66 -1 -66 4 0 13 15 20 33 13 32 13 32 62 -119 45 -139 51 -151 73 -151 22 0 27 11 67 156 24 86 43 164 42 173 -2 9 19 68 46 130 27 62 47 116 44 120 -2 4 -35 26 -73 48 -67 39 -70 40 -166 40 l-97 0 7 -127z"/>
</g>
<g id="layer105" fill="#5b9877" stroke="none">
<path d="M297 1453 c-35 -4 -38 -7 -33 -28 5 -21 2 -23 -42 -29 -133 -18 -132 -18 -112 -54 5 -9 19 -49 30 -88 31 -101 26 -98 101 -79 114 29 123 29 204 -4 41 -16 85 -38 98 -47 25 -19 19 -17 -77 22 l-69 27 -130 -29 -130 -29 -34 -68 c-21 -41 -32 -75 -28 -85 6 -15 8 -15 22 3 8 11 21 37 30 58 8 20 19 37 23 37 5 0 20 -35 34 -77 l26 -78 87 3 c89 4 100 1 175 -45 l37 -23 32 103 c17 56 33 118 35 138 1 20 23 78 49 129 25 50 45 93 43 94 -28 21 -304 156 -316 154 -9 -1 -34 -3 -55 -5z"/>
<path d="M224 753 c10 -173 10 -174 49 -162 18 6 40 15 51 20 13 7 16 7 11 0 -3 -6 1 -11 10 -11 10 0 13 5 9 12 -4 7 -3 8 5 4 23 -15 -8 -34 -75 -46 -64 -12 -67 -14 -84 -54 -16 -38 -17 -66 -1 -66 4 0 13 15 20 33 13 32 13 32 62 -119 45 -139 51 -151 73 -151 22 0 27 11 67 156 24 86 43 164 42 173 -2 9 19 68 46 130 l49 113 -26 22 c-15 13 -31 23 -35 23 -4 0 -25 11 -45 25 -33 23 -47 25 -136 25 l-99 0 7 -127z"/>
<path d="M337 199 c-14 -8 -17 -18 -11 -41 5 -26 4 -30 -10 -25 -13 5 -15 2 -10 -17 3 -15 -1 -34 -11 -50 -16 -24 -16 -26 1 -32 11 -3 30 -10 43 -15 25 -10 41 1 41 28 0 7 10 18 22 24 18 10 19 13 7 23 -8 6 -13 23 -11 38 4 38 -35 81 -61 67z"/>
</g>
<g id="layer106" fill="#f6603b" stroke="none">
<path d="M297 1453 c-35 -4 -38 -7 -33 -28 5 -21 2 -23 -42 -29 -111 -15 -122 -18 -122 -32 0 -8 6 -17 14 -20 8 -3 13 -11 10 -18 -4 -11 38 -152 49 -162 3 -3 33 2 68 11 114 29 123 29 204 -4 82 -33 130 -61 104 -61 -8 0 -19 4 -25 8 -5 4 -35 18 -67 31 l-58 24 -131 -29 -130 -28 -36 -73 c-27 -55 -33 -76 -25 -84 9 -9 19 2 39 45 16 31 31 56 35 56 4 0 19 -35 33 -77 l26 -78 87 3 c89 4 100 1 175 -45 l37 -23 32 103 c17 56 33 118 35 138 1 20 18 68 38 108 20 39 34 71 30 71 -3 0 2 7 10 16 9 8 16 18 16 22 0 11 -303 163 -320 161 -8 -1 -32 -4 -53 -6z"/>
<path d="M224 753 c10 -173 10 -174 49 -162 18 6 40 15 51 20 13 7 16 7 11 0 -3 -6 1 -11 10 -11 10 0 13 5 9 12 -5 7 -3 8 5 3 23 -13 -10 -34 -74 -47 -60 -11 -69 -19 -91 -69 -19 -42 1 -58 22 -18 l17 34 49 -151 c44 -139 50 -151 72 -151 22 0 27 11 67 156 24 86 43 164 42 173 -2 9 19 68 46 130 l49 113 -26 22 c-15 13 -31 23 -35 23 -4 0 -25 11 -45 25 -33 23 -47 25 -136 25 l-99 0 7 -127z"/>
</g>
<g id="layer107" fill="#2dbdaf" stroke="none">
<path d="M370 1369 c-55 -8 -106 -15 -183 -24 -32 -4 -61 -13 -63 -19 -4 -11 39 -152 49 -162 3 -3 33 2 68 11 114 29 123 29 204 -4 82 -33 130 -61 104 -61 -8 0 -19 4 -25 8 -5 4 -35 18 -67 31 l-58 24 -131 -29 -130 -28 -36 -73 c-27 -55 -33 -76 -25 -84 9 -9 19 2 39 45 16 31 31 56 35 56 4 0 19 -35 33 -77 l26 -78 87 3 c89 4 100 1 175 -45 l37 -23 32 103 c17 56 33 118 35 138 1 20 18 68 38 107 l36 72 -117 58 c-108 54 -122 58 -163 51z"/>
<path d="M224 738 c4 -57 9 -115 12 -130 5 -25 7 -26 37 -17 18 6 40 15 51 20 13 7 16 7 11 0 -3 -6 1 -11 10 -11 10 0 13 5 9 12 -5 7 -3 8 5 3 23 -13 -10 -34 -74 -47 -60 -11 -69 -19 -91 -69 -19 -42 1 -58 22 -18 l17 34 49 -151 c44 -139 50 -151 72 -151 22 0 27 11 67 156 24 86 43 164 42 173 -2 10 15 59 37 110 22 50 40 94 40 98 0 4 -33 25 -73 48 -71 41 -76 42 -161 42 l-88 0 6 -102z"/>
<path d="M337 195 c-13 -9 -16 -20 -11 -41 6 -23 4 -26 -10 -21 -13 5 -15 2 -10 -17 3 -15 -1 -34 -11 -50 -16 -24 -16 -26 1 -32 11 -3 30 -10 43 -15 25 -10 41 1 41 28 0 7 10 18 22 24 18 10 19 13 7 23 -8 6 -13 23 -11 38 2 18 -5 36 -20 52 -20 22 -25 23 -41 11z"/>
</g>
<g id="layer108" fill="#a2a870" stroke="none">
<path d="M251 1141 l-114 -26 -35 -72 c-27 -53 -33 -76 -25 -84 8 -8 20 6 44 52 l34 62 105 24 c136 31 143 31 222 -6 77 -36 98 -38 98 -13 0 13 -24 28 -88 55 -48 20 -96 36 -107 36 -11 -1 -71 -13 -134 -28z"/>
<path d="M295 571 c-40 -8 -74 -21 -80 -30 -22 -36 -32 -69 -25 -82 6 -9 13 -3 26 23 17 38 26 42 105 53 37 5 55 2 89 -15 35 -18 44 -19 51 -8 14 21 6 30 -46 52 -48 21 -53 21 -120 7z"/>
</g>
<g id="layer109" fill="#93bf91" stroke="none">
<path d="M280 1145 c-52 -13 -96 -24 -97 -24 -2 -1 -11 -1 -21 -1 -24 0 -102 -144 -86 -160 9 -9 19 2 39 44 15 30 32 59 38 64 7 5 39 14 72 21 33 6 85 18 116 25 56 13 58 13 133 -20 87 -39 106 -41 106 -16 0 13 -24 28 -88 55 -48 20 -94 37 -102 36 -8 0 -58 -11 -110 -24z"/>
<path d="M293 571 c-70 -14 -73 -16 -92 -55 -25 -53 -15 -80 12 -34 12 18 22 34 23 36 1 2 31 8 66 14 59 9 68 8 107 -12 35 -18 45 -19 52 -8 14 21 6 30 -46 52 -48 20 -53 21 -122 7z"/>
</g>
<g id="layer110" fill="#d2c06b" stroke="none">
<path d="M260 1141 l-115 -27 -37 -65 c-39 -66 -45 -84 -29 -94 5 -3 21 19 36 49 15 31 32 59 38 64 7 6 64 21 126 35 l115 26 83 -35 c96 -39 103 -40 103 -16 0 12 -26 27 -93 55 -50 20 -96 37 -102 36 -5 -1 -62 -13 -125 -28z"/>
<path d="M283 566 c-55 -12 -72 -24 -90 -67 -18 -41 0 -53 21 -14 21 39 29 43 100 51 41 5 63 2 99 -14 26 -12 48 -17 49 -11 0 5 1 14 2 20 1 12 -89 50 -114 48 -8 -1 -39 -6 -67 -13z"/>
<path d="M332 191 c-9 -5 -11 -17 -6 -36 6 -24 4 -27 -10 -22 -13 5 -15 2 -10 -17 3 -15 -1 -34 -11 -50 -16 -24 -16 -26 1 -32 11 -3 30 -10 43 -15 25 -10 41 1 41 28 0 7 10 18 22 24 18 10 19 13 7 23 -8 6 -13 23 -11 38 2 15 -5 35 -15 47 -19 23 -31 25 -51 12z"/>
</g>
<g id="layer111" fill="#cfe691" stroke="none">
<path d="M280 1144 c-52 -13 -103 -24 -112 -24 -21 0 -30 -13 -23 -32 5 -12 26 -10 127 13 l121 28 84 -34 c96 -40 103 -41 103 -17 0 12 -26 27 -93 55 -50 20 -96 37 -102 36 -5 0 -53 -12 -105 -25z"/>
<path d="M282 566 c-60 -15 -64 -17 -54 -32 5 -8 25 -8 70 -1 55 10 68 8 112 -10 28 -12 51 -17 52 -12 0 5 1 14 2 20 1 12 -89 50 -114 48 -8 0 -39 -6 -68 -13z"/>
</g>
<g id="layer112" fill="#fefa8d" stroke="none">
<path d="M267 1140 c-64 -15 -120 -30 -124 -34 -4 -3 -2 -11 4 -17 8 -8 39 -5 110 12 124 29 152 28 236 -10 80 -36 87 -37 87 -13 0 12 -24 26 -83 49 -45 18 -89 34 -97 37 -8 2 -68 -9 -133 -24z"/>
<path d="M283 564 c-43 -11 -60 -19 -57 -28 4 -11 16 -11 67 0 34 7 63 13 64 13 1 0 24 -11 50 -24 41 -19 49 -21 56 -8 11 18 6 23 -41 41 -58 21 -73 22 -139 6z"/>
<path d="M370 159 c0 -6 7 -17 15 -25 13 -14 15 -13 15 10 0 16 -6 26 -15 26 -8 0 -15 -5 -15 -11z"/>
<path d="M375 90 c-8 -12 20 -24 35 -15 6 3 8 11 5 16 -8 12 -32 12 -40 -1z"/>
<path d="M345 48 c-9 -26 12 -49 25 -28 14 22 12 37 -4 43 -9 4 -17 -2 -21 -15z"/>
</g>


</svg>