<!DOCTYPE svg PUBLIC "-//W3C//DTD SVG 20010904//EN" "http://www.w3.org/TR/2001/REC-SVG-20010904/DTD/svg10.dtd">
<svg version="1.0" xmlns="http://www.w3.org/2000/svg" width="103px" height="63px" viewBox="0 0 1030 630" preserveAspectRatio="xMidYMid meet">
<g id="layer101" fill="#704d3d" stroke="none">
<path d="M173 552 l-153 -77 0 -92 c0 -55 -4 -93 -10 -93 -5 0 -10 -17 -10 -38 l0 -38 119 -59 120 -59 42 19 c40 18 128 27 139 14 3 -4 29 -18 58 -33 36 -18 52 -32 52 -46 0 -25 30 -41 77 -40 47 0 76 0 129 0 43 -1 74 19 74 45 0 8 24 26 53 42 44 24 52 33 55 61 2 22 -2 34 -12 38 -17 7 -22 44 -6 44 6 0 10 16 10 35 0 25 4 35 15 35 28 0 93 39 100 60 8 26 -3 146 -17 182 -29 76 -262 78 -297 2 -6 -14 -11 -32 -11 -41 0 -10 -6 -13 -16 -9 -8 3 -37 -5 -64 -19 -27 -14 -52 -25 -55 -25 -3 0 -5 13 -5 30 0 28 -7 33 -110 85 -60 30 -113 55 -117 54 -5 0 -77 -35 -160 -77z"/>
</g>
<g id="layer102" fill="#a63824" stroke="none">
<path d="M173 552 l-153 -77 0 -92 c0 -55 -4 -93 -10 -93 -5 0 -10 -17 -10 -38 l0 -38 119 -59 120 -59 42 19 c40 18 128 27 139 14 3 -4 29 -18 58 -33 36 -18 52 -32 52 -46 0 -25 30 -41 77 -40 47 0 76 0 129 0 43 -1 74 19 74 45 0 8 24 26 53 42 44 24 52 33 55 61 2 22 -2 34 -12 38 -17 7 -22 44 -6 44 6 0 10 16 10 35 0 25 4 35 15 35 28 0 93 39 100 60 8 26 -3 146 -17 182 -29 76 -262 78 -297 2 -6 -14 -11 -32 -11 -41 0 -10 -6 -13 -16 -9 -8 3 -37 -5 -64 -19 -27 -14 -52 -25 -55 -25 -3 0 -5 13 -5 30 0 28 -7 33 -110 85 -60 30 -113 55 -117 54 -5 0 -77 -35 -160 -77z m705 -119 c-10 -2 -26 -2 -35 0 -10 3 -2 5 17 5 19 0 27 -2 18 -5z"/>
</g>
<g id="layer103" fill="#268a7f" stroke="none">
<path d="M173 552 l-153 -77 0 -92 c0 -55 -4 -93 -10 -93 -5 0 -10 -17 -10 -38 l0 -38 119 -59 120 -59 42 19 c40 18 128 27 139 14 3 -4 29 -18 58 -33 36 -18 52 -32 52 -46 0 -25 30 -41 77 -40 47 0 76 0 129 0 43 -1 74 19 74 45 0 8 24 26 53 42 44 24 52 33 55 61 2 22 -2 34 -12 38 -17 7 -22 44 -6 44 6 0 10 16 10 35 0 25 4 35 15 35 28 0 93 39 100 60 8 26 -3 146 -17 182 -29 76 -262 78 -297 2 -6 -14 -11 -32 -11 -41 0 -10 -6 -13 -16 -9 -8 3 -37 -5 -64 -19 -27 -14 -52 -25 -55 -25 -3 0 -5 13 -5 30 0 28 -7 33 -110 85 -60 30 -113 55 -117 54 -5 0 -77 -35 -160 -77z m304 -135 c-2 -23 -3 -1 -3 48 0 50 1 68 3 42 2 -26 2 -67 0 -90z m300 63 c1 -23 1 -24 -4 -2 -4 22 -6 23 -30 7 -24 -16 -24 -16 -13 5 15 28 45 22 47 -10z m123 -50 c0 -5 -15 -10 -34 -10 -19 0 -38 5 -41 10 -4 6 10 10 34 10 23 0 41 -4 41 -10z m-690 -30 c0 -12 -12 -26 -30 -35 -28 -15 -30 -15 -30 4 0 12 12 27 28 35 34 19 32 19 32 -4z m195 -140 c17 -18 18 -20 2 -20 -10 0 -17 -8 -17 -20 0 -11 -4 -20 -10 -20 -16 0 -60 23 -60 32 0 4 -13 8 -30 8 -16 0 -30 -4 -30 -8 0 -12 -50 -33 -61 -27 -5 4 -9 13 -9 21 0 8 -7 14 -17 14 -15 0 -14 2 2 19 30 34 196 34 230 1z m373 -120 c7 -12 8 -20 2 -20 -5 0 -10 -9 -10 -20 0 -11 -4 -20 -10 -20 -19 0 -59 23 -54 31 3 5 -11 9 -30 9 -20 0 -36 -4 -36 -8 0 -12 -50 -33 -61 -27 -5 4 -9 13 -9 21 0 8 -5 14 -12 14 -6 0 -3 9 7 20 16 17 31 20 109 20 80 0 93 -2 104 -20z"/>
</g>
<g id="layer104" fill="#ed5334" stroke="none">
<path d="M331 515 c0 -63 -2 -119 -6 -125 -3 -6 -33 -24 -66 -40 l-59 -30 0 25 c0 29 0 29 -35 13 -18 -8 -25 -19 -25 -39 0 -26 -8 -33 -72 -65 l-73 -37 122 -60 121 -61 42 19 c41 18 129 27 140 14 3 -4 29 -18 58 -33 36 -18 52 -32 52 -46 0 -25 30 -41 77 -40 47 0 76 0 129 0 43 -1 74 19 74 45 0 8 24 26 53 42 44 24 52 33 55 61 2 22 -2 34 -12 38 -17 7 -22 44 -6 44 6 0 10 15 10 33 0 30 4 34 50 50 58 21 74 45 66 96 -4 20 -10 62 -14 94 -5 33 -14 62 -22 68 -29 18 -92 30 -143 27 l-52 -3 -3 -42 c-3 -42 -3 -43 30 -44 34 -1 32 -3 -14 -13 -20 -5 -28 -13 -29 -29 l-1 -22 -6 23 c-7 21 -8 22 -29 7 -13 -9 -23 -25 -23 -35 0 -10 -5 -22 -11 -25 -7 -5 -8 4 -4 28 6 29 3 37 -14 46 -16 9 -31 6 -76 -16 l-55 -27 0 -56 c0 -31 6 -62 13 -70 10 -12 9 -12 -5 -1 -13 10 -18 27 -18 61 0 52 -16 68 -51 50 -22 -12 -25 -40 -6 -59 10 -11 9 -13 -3 -9 -12 4 -15 25 -16 98 l-2 94 -63 32 c-35 18 -67 33 -72 34 -4 0 -7 -52 -6 -115z m564 -55 c23 -9 25 -12 11 -25 -17 -18 -67 -20 -84 -3 -9 9 -7 14 6 24 21 16 33 17 67 4z m-65 -130 c0 -13 -7 -20 -20 -20 -25 0 -26 16 -2 29 23 14 22 14 22 -9z m-507 -42 c-4 -7 50 -13 90 -10 9 1 18 -4 19 -11 4 -38 3 -65 -4 -61 -4 3 -8 12 -8 20 0 8 -7 14 -15 14 -8 0 -15 -9 -15 -20 0 -11 -4 -20 -10 -20 -16 0 -60 23 -60 32 0 4 -13 8 -30 8 -16 0 -30 -4 -30 -8 0 -12 -50 -33 -61 -27 -5 4 -9 13 -9 21 0 22 -27 17 -33 -7 -7 -24 -27 -16 -27 10 0 19 24 45 44 47 6 0 28 2 49 2 21 1 36 5 34 10 -3 4 12 7 33 7 21 0 36 -3 33 -7z m247 -30 c-12 -10 -27 -18 -34 -18 -6 1 1 8 17 16 15 8 27 22 28 32 0 13 2 14 6 3 3 -8 -4 -23 -17 -33z m208 -118 c7 -12 8 -20 2 -20 -5 0 -10 -9 -10 -20 0 -11 -4 -20 -10 -20 -19 0 -59 23 -54 31 3 5 -11 9 -30 9 -20 0 -36 -4 -36 -8 0 -12 -50 -33 -61 -27 -5 4 -9 13 -9 21 0 8 -5 14 -12 14 -6 0 -3 9 7 20 16 17 31 20 109 20 80 0 93 -2 104 -20z"/>
<path d="M745 587 c-29 -18 -20 -82 13 -83 20 -1 22 4 22 48 0 51 -3 54 -35 35z"/>
<path d="M178 554 c-27 -14 -28 -18 -28 -90 l0 -75 30 16 c29 15 30 17 30 90 0 41 -1 75 -2 75 -2 -1 -15 -8 -30 -16z"/>
</g>
<g id="layer105" fill="#2eb4a6" stroke="none">
<path d="M331 515 c0 -68 -4 -121 -10 -129 -6 -7 -33 -23 -61 -36 -27 -13 -50 -27 -50 -31 0 -5 18 -14 40 -20 45 -14 91 -4 148 31 32 20 44 61 22 75 -6 3 -10 48 -10 99 l0 92 -35 17 c-20 9 -38 17 -40 17 -3 0 -5 -52 -4 -115z"/>
<path d="M797 603 c-4 -3 -7 -24 -7 -45 0 -36 2 -38 33 -39 33 -1 31 -3 -15 -13 -19 -4 -28 -13 -28 -27 0 -26 25 -35 55 -19 18 10 31 10 55 1 18 -6 36 -9 40 -6 13 8 11 138 -3 147 -15 9 -121 11 -130 1z"/>
<path d="M993 502 l6 -73 -35 -16 c-18 -9 -34 -20 -34 -23 0 -4 18 -15 41 -25 50 -23 63 -11 54 50 -3 22 -8 63 -11 90 -10 83 -27 81 -21 -3z"/>
<path d="M628 489 l-38 -19 0 -83 c0 -45 -3 -104 -6 -132 l-6 -50 46 -22 46 -23 46 23 46 22 -7 60 c-3 36 -12 65 -22 72 -13 10 -11 14 21 29 20 10 36 21 36 24 0 11 -71 41 -81 34 -7 -4 -8 7 -4 29 6 29 3 37 -13 46 -25 13 -19 14 -64 -10z"/>
<path d="M498 439 c-18 -10 -24 -44 -10 -53 4 -3 6 -20 4 -40 -3 -26 -10 -37 -32 -46 -25 -10 -27 -16 -27 -63 0 -29 -3 -66 -7 -82 -7 -29 -5 -32 40 -53 l47 -23 27 33 28 33 -24 13 c-18 10 -24 21 -24 47 0 28 5 37 30 50 33 17 41 54 15 75 -9 8 -15 30 -15 60 0 34 -4 50 -16 54 -19 7 -15 8 -36 -5z"/>
<path d="M905 320 c-3 -5 3 -10 15 -10 12 0 18 5 15 10 -3 6 -10 10 -15 10 -5 0 -12 -4 -15 -10z"/>
<path d="M65 253 l-69 -35 44 -23 c40 -21 48 -21 72 -9 19 10 25 19 21 34 -3 12 2 28 11 39 14 16 13 32 -3 31 -3 -1 -37 -17 -76 -37z"/>
<path d="M256 154 c-18 -10 -41 -14 -62 -11 -46 8 -43 -6 7 -28 40 -18 41 -18 87 4 44 22 45 24 27 37 -23 17 -23 17 -59 -2z"/>
</g>
<g id="layer106" fill="#b28b74" stroke="none">
<path d="M933 555 c0 -27 2 -38 4 -22 2 15 2 37 0 50 -2 12 -4 0 -4 -28z"/>
<path d="M628 489 l-38 -19 0 -83 c0 -45 -3 -104 -6 -132 l-6 -50 46 -22 46 -23 46 23 46 22 -7 60 c-5 45 -12 65 -30 80 -31 27 -39 58 -24 102 10 32 9 38 -7 50 -22 16 -21 16 -66 -8z"/>
<path d="M815 241 c7 -67 6 -70 -18 -83 l-25 -13 28 -34 28 -33 44 23 c35 20 44 30 46 57 2 22 -2 34 -12 38 -9 3 -16 17 -16 30 0 20 -5 24 -30 24 -27 0 -30 3 -30 30 0 17 -5 30 -11 30 -8 0 -9 -21 -4 -69z"/>
<path d="M468 210 c-26 -14 -38 -29 -43 -51 -8 -36 -12 -31 44 -59 l43 -22 28 34 28 33 -24 13 c-17 9 -24 21 -24 42 0 35 -3 35 -52 10z"/>
</g>
<g id="layer107" fill="#ececeb" stroke="none">
<path d="M626 489 l-39 -21 5 -99 c3 -55 1 -102 -4 -105 -4 -3 -8 -18 -8 -33 0 -22 8 -31 45 -49 l45 -22 46 23 46 22 -7 60 c-5 45 -12 65 -30 80 -31 27 -39 58 -24 102 10 32 9 38 -7 50 -22 16 -21 16 -68 -8z"/>
<path d="M815 241 c6 -63 5 -70 -14 -80 l-20 -11 20 -35 c12 -19 24 -35 27 -35 4 0 25 10 47 23 32 18 41 29 43 55 2 22 -2 34 -12 38 -9 3 -16 17 -16 30 0 20 -5 24 -30 24 -27 0 -30 3 -30 30 0 17 -5 30 -11 30 -8 0 -9 -21 -4 -69z"/>
<path d="M468 210 c-26 -14 -38 -29 -43 -51 -8 -36 -12 -31 43 -58 42 -21 62 -21 62 1 0 6 7 19 16 29 14 16 14 18 -5 29 -14 7 -21 21 -21 40 0 35 -3 35 -52 10z"/>
<path d="M645 36 c-18 -13 -18 -14 3 -25 17 -9 27 -9 44 0 21 11 21 12 3 25 -10 8 -22 14 -25 14 -3 0 -15 -6 -25 -14z"/>
</g>


</svg>