<!DOCTYPE svg PUBLIC "-//W3C//DTD SVG 20010904//EN" "http://www.w3.org/TR/2001/REC-SVG-20010904/DTD/svg10.dtd">
<svg version="1.0" xmlns="http://www.w3.org/2000/svg" width="35px" height="30px" viewBox="0 0 350 300" preserveAspectRatio="xMidYMid meet">
<g id="layer101" fill="#343033" stroke="none">
<path d="M135 291 c-17 -4 -52 -20 -78 -35 -47 -28 -47 -28 -47 -81 0 -29 -3 -61 -6 -69 -5 -12 8 -23 50 -42 l56 -26 37 22 c30 18 40 19 58 10 16 -8 21 -19 17 -35 -5 -26 24 -41 59 -30 16 5 20 13 16 31 -2 13 -1 24 4 24 4 0 11 15 15 32 3 18 14 44 23 57 12 18 12 26 3 29 -6 2 -12 12 -12 22 0 9 -7 23 -15 30 -8 7 -15 9 -15 4 0 -4 -9 2 -21 15 -12 13 -27 20 -36 16 -10 -3 -22 3 -30 15 -15 21 -28 23 -78 11z"/>
</g>
<g id="layer102" fill="#693731" stroke="none">
<path d="M129 285 c-19 -7 -54 -22 -76 -34 l-41 -21 -4 -72 -3 -71 53 -25 52 -24 37 22 c30 18 40 19 58 10 16 -8 21 -19 17 -35 -5 -26 24 -41 59 -30 17 6 20 12 15 37 -3 16 -2 27 3 23 5 -3 13 9 16 27 4 18 15 44 24 57 12 18 12 26 3 29 -6 2 -12 12 -12 22 0 9 -7 23 -15 30 -8 7 -15 9 -15 4 0 -4 -9 2 -21 15 -12 13 -27 20 -36 16 -10 -3 -22 3 -30 15 -16 23 -33 24 -84 5z m157 -153 c-5 -4 -106 46 -106 53 0 3 25 -7 55 -22 30 -15 53 -29 51 -31z"/>
</g>
<g id="layer103" fill="#41474f" stroke="none">
<path d="M135 286 c-16 -8 -51 -23 -77 -34 l-46 -20 -4 -73 -3 -72 53 -25 c52 -24 53 -24 85 -5 43 26 70 35 62 23 -3 -6 0 -13 8 -16 9 -3 12 -14 10 -29 -6 -26 23 -41 58 -30 17 6 20 12 15 37 -3 16 -2 27 3 23 5 -3 13 9 16 27 4 18 14 42 21 53 18 25 18 35 0 35 -9 0 -12 7 -9 18 2 10 -3 24 -11 31 -9 8 -16 10 -16 5 0 -4 -9 2 -21 15 -12 13 -27 20 -36 16 -10 -3 -22 3 -30 15 -17 23 -37 25 -78 6z m115 -126 c61 -31 80 -47 35 -30 -37 14 -105 50 -105 55 0 9 10 5 70 -25z"/>
</g>
<g id="layer104" fill="#993b2b" stroke="none">
<path d="M153 280 c-4 -15 -11 -18 -28 -14 -13 3 -43 -3 -69 -15 l-46 -20 0 -65 c0 -58 2 -66 19 -66 11 0 34 12 51 26 27 23 34 25 56 15 37 -17 44 -14 44 19 0 17 3 30 8 30 4 0 35 -16 70 -34 l62 -34 15 21 c19 27 19 37 1 37 -9 0 -12 7 -9 18 2 10 -3 24 -11 31 -9 8 -16 10 -16 5 0 -4 -9 2 -21 15 -12 13 -27 20 -36 16 -10 -3 -22 3 -30 15 -18 26 -53 26 -60 0z m55 -28 c2 -12 -1 -22 -7 -22 -13 0 -32 35 -24 44 12 12 28 0 31 -22z m72 -38 c0 -16 -26 -19 -35 -4 -4 6 -4 18 -1 27 5 12 9 13 21 3 8 -7 15 -19 15 -26z m32 -12 c-7 -2 -12 -12 -12 -23 0 -12 -5 -16 -15 -13 -13 5 -13 8 0 21 8 8 15 19 15 24 0 6 5 7 12 3 9 -6 9 -9 0 -12z"/>
<path d="M205 80 c-3 -6 0 -13 8 -16 9 -3 12 -14 10 -29 -4 -17 1 -25 16 -30 50 -16 80 24 45 60 -13 12 -19 13 -30 4 -12 -10 -13 -9 -8 5 4 12 1 16 -14 16 -12 0 -24 -5 -27 -10z"/>
</g>
<g id="layer105" fill="#625d67" stroke="none">
<path d="M153 280 c-4 -15 -11 -18 -28 -14 -13 3 -43 -3 -69 -15 l-46 -20 0 -65 c0 -58 2 -66 19 -66 11 0 34 12 51 26 27 23 34 25 56 15 34 -15 34 -15 34 17 0 16 3 31 6 35 7 7 126 -50 135 -65 4 -6 14 0 23 13 20 29 20 39 2 39 -9 0 -12 7 -9 18 2 10 -3 24 -11 31 -9 8 -16 10 -16 5 0 -4 -9 2 -21 15 -12 13 -27 20 -36 16 -10 -3 -22 3 -30 15 -18 26 -53 26 -60 0z m55 -28 c2 -12 -1 -22 -7 -22 -13 0 -32 35 -24 44 12 12 28 0 31 -22z m72 -38 c0 -16 -26 -19 -35 -4 -4 6 -4 18 -1 27 5 12 9 13 21 3 8 -7 15 -19 15 -26z m-50 -9 c0 -9 -6 -12 -15 -9 -8 4 -12 10 -9 15 8 14 24 10 24 -6z m80 -5 c-6 -4 -11 -10 -10 -14 1 -4 -1 -12 -3 -19 -4 -9 -7 -9 -18 1 -8 8 -9 12 -2 12 7 0 15 9 18 20 4 11 11 17 17 14 7 -4 6 -9 -2 -14z"/>
</g>
<g id="layer106" fill="#ca4229" stroke="none">
<path d="M157 293 c-2 -5 -3 -15 -2 -24 2 -14 -1 -15 -24 -6 -21 8 -37 5 -74 -11 l-47 -21 0 -65 c0 -58 2 -66 19 -66 11 0 34 12 51 26 27 23 34 25 56 15 34 -15 34 -15 34 17 0 16 3 31 6 35 7 7 126 -50 135 -65 4 -6 14 0 23 13 20 29 20 39 0 39 -10 0 -13 6 -9 19 3 10 -1 24 -10 31 -8 7 -15 9 -15 4 0 -4 -9 2 -21 15 -12 13 -27 20 -36 16 -10 -3 -22 3 -30 15 -14 20 -48 27 -56 13z m51 -41 c2 -12 -1 -22 -6 -22 -15 0 -34 28 -27 40 10 17 30 6 33 -18z m72 -38 c0 -16 -26 -19 -35 -4 -4 6 -4 18 -1 27 5 12 9 13 21 3 8 -7 15 -19 15 -26z m-45 -22 c-1 -1 -10 0 -19 4 -13 5 -14 9 -4 21 10 13 13 13 19 -4 3 -10 5 -19 4 -21z m85 18 c0 -5 -5 -10 -11 -10 -5 0 -8 -4 -5 -8 8 -13 -11 -35 -23 -28 -8 5 -6 15 6 31 19 26 33 32 33 15z"/>
<path d="M210 75 c0 -17 2 -18 24 -9 23 9 20 24 -4 24 -11 0 -20 -7 -20 -15z"/>
<path d="M260 60 c0 -5 -9 -10 -20 -10 -27 0 -27 -37 0 -45 46 -14 79 22 48 53 -15 15 -28 16 -28 2z"/>
</g>
<g id="layer107" fill="#738091" stroke="none">
<path d="M157 293 c-2 -5 -3 -16 -2 -25 4 -21 1 -22 -26 -8 -18 10 -19 7 -19 -44 0 -51 2 -57 29 -71 l30 -15 3 38 c2 20 6 35 9 32 4 -3 16 4 28 14 21 19 24 16 20 -20 -1 -7 58 -44 69 -44 4 0 -1 5 -11 11 -14 8 -15 14 -7 24 6 8 17 12 25 9 7 -3 16 0 20 6 7 12 -13 42 -24 35 -4 -2 -15 5 -25 16 -10 12 -24 18 -33 15 -10 -4 -21 1 -30 14 -14 20 -48 27 -56 13z m51 -41 c2 -12 -1 -22 -6 -22 -15 0 -34 28 -27 40 10 17 30 6 33 -18z m72 -38 c0 -16 -26 -19 -35 -4 -4 6 -4 18 -1 27 5 12 9 13 21 3 8 -7 15 -19 15 -26z"/>
</g>
<g id="layer108" fill="#fa5636" stroke="none">
<path d="M160 275 c0 -28 -3 -29 -31 -15 -18 10 -19 7 -19 -44 0 -51 2 -57 29 -71 l30 -15 3 38 c2 24 8 36 16 34 8 -1 11 2 7 8 -5 9 15 15 38 11 4 0 7 6 7 15 0 9 7 14 18 12 20 -4 24 -52 5 -54 -7 -1 -19 -2 -25 -3 -13 -1 46 -41 60 -41 4 0 -1 5 -10 10 -15 9 -15 13 -1 40 15 31 40 32 28 1 -5 -12 -4 -13 6 -4 10 10 9 15 -1 27 -7 9 -16 13 -21 10 -5 -3 -12 1 -15 10 -10 25 -36 28 -60 5 -26 -25 -54 -19 -54 11 0 13 7 20 20 20 11 0 20 -5 20 -12 0 -6 3 -8 6 -5 11 10 -17 37 -37 37 -14 0 -19 -7 -19 -25z"/>
<path d="M310 171 c0 -5 6 -14 14 -20 11 -9 15 -8 20 5 9 23 8 24 -14 24 -11 0 -20 -4 -20 -9z"/>
<path d="M242 31 c-22 -19 -22 -20 -2 -26 29 -9 62 4 58 23 -5 24 -29 25 -56 3z"/>
</g>
<g id="layer109" fill="#c06e67" stroke="none">
<path d="M160 274 c0 -44 17 -65 44 -54 13 5 27 6 30 3 3 -4 6 1 6 11 0 11 6 16 18 14 19 -4 25 -53 5 -53 -6 0 -15 -4 -20 -9 -5 -5 -3 -6 5 -2 6 4 12 2 12 -4 0 -18 20 0 31 27 5 13 14 21 20 18 6 -4 8 -14 4 -24 -5 -12 -4 -13 6 -4 10 10 9 15 -1 27 -7 9 -16 13 -21 10 -5 -3 -12 1 -15 10 -10 25 -36 28 -60 5 -26 -25 -54 -19 -54 11 0 13 7 20 20 20 11 0 20 -5 20 -12 0 -6 3 -8 6 -5 11 10 -17 37 -37 37 -14 0 -19 -7 -19 -26z"/>
</g>
<g id="layer110" fill="#94a3ba" stroke="none">
<path d="M161 273 c1 -17 3 -21 6 -10 5 19 43 24 43 5 0 -6 3 -8 6 -5 11 10 -17 37 -37 37 -14 0 -19 -7 -18 -27z"/>
<path d="M229 254 c-7 -9 -22 -20 -34 -25 -16 -6 -14 -8 13 -6 19 1 32 7 32 15 0 7 8 12 18 10 11 -2 17 -12 17 -28 0 -15 -5 -24 -13 -22 -8 1 -11 -2 -7 -8 11 -17 25 -11 35 16 6 14 15 22 21 19 6 -4 8 -14 4 -24 -5 -12 -4 -13 6 -4 10 10 9 15 -1 27 -7 9 -16 14 -20 11 -4 -2 -15 4 -25 15 -22 24 -29 25 -46 4z"/>
</g>


</svg>