<!DOCTYPE svg PUBLIC "-//W3C//DTD SVG 20010904//EN" "http://www.w3.org/TR/2001/REC-SVG-20010904/DTD/svg10.dtd">
<svg version="1.0" xmlns="http://www.w3.org/2000/svg" width="718px" height="487px" viewBox="0 0 7180 4870" preserveAspectRatio="xMidYMid meet">
<g id="layer101" fill="#111111" stroke="none">
 <path d="M703 4547 l-643 -322 0 -317 0 -318 -30 0 c-27 0 -30 -3 -30 -32 0 -40 53 -124 91 -144 29 -14 33 -24 43 -102 11 -75 64 -192 114 -249 44 -51 68 -64 436 -248 l390 -195 89 0 c72 0 104 5 171 29 46 16 98 38 116 49 l33 21 579 -290 578 -289 150 75 150 75 61 -31 c34 -16 63 -28 66 -25 3 3 25 -6 48 -19 23 -14 49 -25 58 -25 10 0 17 -6 17 -14 0 -8 9 -18 20 -21 18 -6 20 -15 20 -116 l0 -109 -30 0 c-27 0 -30 -3 -30 -33 0 -20 12 -50 33 -80 32 -48 34 -49 942 -506 l910 -457 11 -99 c16 -130 58 -239 122 -312 44 -51 68 -64 436 -248 l390 -195 89 0 c164 0 326 78 485 233 159 156 297 385 357 595 15 51 33 105 41 120 8 15 14 46 14 69 0 42 1 43 59 72 46 24 66 41 90 81 39 63 39 96 1 140 l-29 35 -1 285 0 285 -1295 650 -1294 650 -267 -133 -267 -133 -28 33 -28 33 -1 285 0 285 -1285 643 c-707 353 -1291 642 -1298 641 -6 0 -301 -145 -654 -322z"/>
 </g>
<g id="layer102" fill="#925834" stroke="none">
 <path d="M703 4547 l-643 -322 0 -317 0 -318 -30 0 c-27 0 -30 -3 -30 -32 0 -40 53 -124 91 -144 29 -14 33 -24 43 -102 11 -75 64 -192 114 -249 44 -51 68 -64 436 -248 l390 -195 89 0 c72 0 104 5 171 29 46 16 98 38 116 49 l33 21 579 -290 578 -289 150 75 150 75 61 -31 c34 -16 63 -28 66 -25 3 3 25 -6 48 -19 23 -14 49 -25 58 -25 10 0 17 -6 17 -14 0 -8 9 -18 20 -21 18 -6 20 -15 20 -116 l0 -109 -30 0 c-27 0 -30 -3 -30 -33 0 -20 12 -50 33 -80 32 -48 34 -49 942 -506 l910 -457 11 -99 c16 -130 58 -239 122 -312 44 -51 68 -64 436 -248 l390 -195 89 0 c164 0 326 78 485 233 159 156 297 385 357 595 15 51 33 105 41 120 8 15 14 46 14 69 0 42 1 43 59 72 46 24 66 41 90 81 39 63 39 96 1 140 l-29 35 -1 285 0 285 -1295 650 -1294 650 -267 -133 -267 -133 -28 33 -28 33 -1 285 0 285 -1285 643 c-707 353 -1291 642 -1298 641 -6 0 -301 -145 -654 -322z m610 -607 c-4 -77 -47 -219 -102 -335 -120 -252 -321 -453 -519 -519 -146 -49 -247 -28 -345 71 -38 40 -51 62 -66 119 -11 38 -18 85 -16 104 2 19 4 52 4 72 l1 38 508 255 c279 140 514 253 522 252 12 -2 14 -15 13 -57z m4940 -2620 c-4 -77 -47 -219 -102 -335 -120 -252 -321 -453 -519 -519 -146 -49 -247 -28 -345 71 -61 63 -88 151 -80 258 3 39 7 72 10 75 14 15 1010 508 1023 506 12 -1 14 -14 13 -56z"/>
 </g>
<g id="layer103" fill="#c27e51" stroke="none">
 <path d="M703 4547 l-643 -322 0 -317 0 -318 -30 0 c-27 0 -30 -3 -30 -32 0 -40 53 -124 91 -144 29 -14 33 -24 43 -102 11 -75 64 -192 114 -249 44 -51 68 -64 436 -248 l390 -195 89 0 c72 0 104 5 171 29 46 16 98 38 116 49 l33 21 579 -290 578 -289 150 75 150 75 61 -31 c34 -16 63 -28 66 -25 3 3 25 -6 48 -19 50 -30 68 -31 103 -6 54 37 205 102 216 91 6 -6 -33 -30 -119 -71 -115 -55 -127 -63 -107 -72 21 -10 22 -16 22 -119 l0 -108 -30 0 c-27 0 -30 -3 -30 -33 0 -20 12 -50 33 -80 32 -48 34 -49 942 -506 l910 -457 11 -99 c16 -130 58 -239 122 -312 44 -51 68 -64 436 -248 l390 -195 89 0 c164 0 326 78 485 233 159 156 297 385 357 595 15 51 33 105 41 120 8 15 14 46 14 69 0 42 1 43 59 72 46 24 66 41 90 81 39 63 39 96 1 140 l-29 35 -1 285 0 285 -1295 650 -1294 650 -267 -133 -267 -133 -28 33 -28 33 -1 285 0 285 -1285 643 c-707 353 -1291 642 -1298 641 -6 0 -301 -145 -654 -322z m610 -607 c-4 -77 -47 -219 -102 -335 -120 -252 -321 -453 -519 -519 -146 -49 -247 -28 -345 71 -38 40 -51 62 -66 119 -11 38 -18 85 -16 104 2 19 4 52 4 72 l1 38 508 255 c279 140 514 253 522 252 12 -2 14 -15 13 -57z m2506 -1454 c-2 -2 -57 -31 -121 -65 -72 -38 -123 -59 -130 -55 -13 8 211 122 241 123 8 1 12 -1 10 -3z m196 -21 c0 -14 -4 -25 -8 -25 -11 0 -67 30 -67 36 0 2 10 0 21 -7 17 -9 25 -8 37 5 9 9 16 16 17 16 0 0 0 -11 0 -25z m49 -80 c-19 -29 -267 -158 -292 -153 -10 3 49 38 136 81 98 50 152 83 152 93 0 8 4 12 10 9 6 -4 4 -15 -6 -30z m-328 -180 c-11 -8 -27 -15 -35 -15 -13 1 -12 4 3 15 11 8 27 15 35 15 13 -1 12 -4 -3 -15z m-91 -45 c-6 -9 -189 -100 -202 -100 -18 0 26 29 100 66 83 42 113 52 102 34z m2608 -840 c-4 -77 -47 -219 -102 -335 -120 -252 -321 -453 -519 -519 -146 -49 -247 -28 -345 71 -38 40 -51 62 -66 119 -11 38 -18 85 -16 104 2 19 4 52 4 72 l1 38 260 130 c143 72 258 135 255 140 -6 9 28 23 60 24 11 1 19 6 18 13 -2 7 3 10 10 7 8 -3 103 40 213 95 109 55 206 99 214 98 12 -2 14 -15 13 -57z"/>
 </g>
<g id="layer104" fill="#fba569" stroke="none">
 <path d="M1360 4560 c0 -285 1 -310 17 -310 11 0 13 -3 8 -9 -6 -5 -53 -11 -105 -13 -81 -3 -104 -8 -153 -33 -33 -16 -81 -53 -110 -84 -154 -163 -198 -187 -359 -201 -166 -14 -203 -33 -348 -180 -97 -99 -153 -130 -247 -138 -62 -5 -63 -5 -63 -35 0 -39 54 -123 91 -143 29 -14 33 -24 43 -102 11 -75 64 -192 114 -249 44 -51 68 -64 436 -248 l390 -195 89 0 c72 0 104 5 171 29 46 16 98 38 116 49 l33 21 578 -290 579 -289 167 85 c213 108 394 195 402 194 3 0 -51 -29 -121 -65 -71 -35 -128 -66 -128 -69 0 -8 102 -57 107 -51 3 3 25 -6 50 -20 39 -24 47 -25 76 -13 17 7 39 18 47 24 8 7 55 29 103 50 62 26 92 34 99 27 7 -7 -28 -30 -118 -75 l-129 -65 48 -21 c27 -12 52 -21 56 -21 4 0 33 14 65 31 31 17 60 29 63 26 3 -3 -19 -18 -48 -33 l-53 -26 47 -25 48 -24 109 57 c90 47 108 60 98 71 -7 9 0 8 20 -4 18 -10 32 -20 32 -23 0 -3 -54 -32 -119 -65 -66 -32 -118 -62 -115 -67 7 -12 -80 -70 -134 -90 -26 -9 -68 -17 -94 -18 -47 0 -48 0 -48 -33 0 -20 12 -50 33 -80 32 -48 34 -49 942 -506 l910 -457 11 -99 c16 -130 58 -239 122 -312 44 -51 68 -64 436 -248 l390 -195 89 0 c164 0 326 78 485 233 159 156 297 385 357 595 15 51 33 105 41 120 8 15 14 46 14 69 0 42 1 43 59 72 46 24 66 41 90 81 38 62 39 93 4 139 l-28 36 -5 285 -5 285 -1285 647 c-707 356 -1288 648 -1292 648 -5 0 -8 -139 -8 -310 0 -285 1 -310 17 -310 11 0 13 -3 7 -9 -5 -5 -52 -11 -104 -13 -81 -3 -104 -8 -153 -33 -51 -25 -167 -126 -167 -145 0 -4 10 -12 23 -18 12 -6 16 -11 9 -11 -7 -1 -26 6 -42 14 -27 14 -31 14 -48 -2 -10 -10 -79 -49 -153 -88 l-135 -69 -38 23 c-28 18 -34 26 -24 32 8 5 15 4 17 -4 2 -7 8 -15 13 -18 8 -5 281 131 301 150 10 10 -88 55 -102 47 -6 -4 -11 -1 -11 6 0 8 -20 24 -45 36 -45 22 -45 22 -65 2 -11 -11 -73 -47 -139 -79 -65 -33 -121 -65 -123 -70 -1 -6 -13 -2 -25 7 -22 17 -20 18 128 87 83 39 153 73 155 77 3 4 -16 18 -41 31 l-46 23 -106 -54 c-57 -29 -106 -52 -109 -50 -2 2 37 24 86 48 102 50 111 67 50 95 -22 10 -40 21 -40 24 1 3 68 39 150 78 133 65 153 78 185 120 44 61 48 116 10 161 l-25 30 -2 283 -3 284 -1280 642 c-704 353 -1283 642 -1287 642 -5 1 -8 -138 -8 -309z m338 -441 c95 1 108 -2 165 -30 69 -34 113 -66 103 -76 -3 -3 -14 0 -23 8 -36 30 -80 41 -192 50 -93 7 -124 14 -165 35 -65 33 -83 51 -31 29 29 -12 69 -16 143 -16z m-385 -173 c-3 -80 -45 -222 -102 -341 -120 -252 -321 -453 -519 -519 -146 -49 -247 -28 -345 71 -63 65 -93 162 -80 267 l8 68 510 258 c281 141 515 256 520 255 6 -1 9 -27 8 -59z m927 -142 c19 -4 73 -7 119 -5 76 2 89 0 145 -28 62 -31 149 -97 111 -84 -11 3 -27 11 -35 18 -27 21 -93 36 -196 45 -83 7 -113 14 -162 39 -33 17 -64 36 -67 42 -4 6 6 4 21 -4 16 -8 45 -18 64 -23z m738 -325 c95 1 108 -2 165 -30 69 -34 113 -66 103 -76 -3 -3 -14 0 -23 8 -36 30 -80 41 -192 50 -93 7 -124 14 -165 35 -65 33 -83 51 -31 29 29 -12 69 -16 143 -16z m-1016 -293 c10 -7 15 -16 12 -19 -8 -7 -54 14 -54 25 0 12 23 9 42 -6z m1558 -22 c19 -4 73 -7 119 -5 76 2 89 0 145 -28 62 -31 149 -97 111 -84 -11 3 -27 11 -35 18 -27 21 -93 36 -196 45 -83 7 -113 14 -162 39 -33 17 -64 36 -67 42 -4 6 6 4 21 -4 16 -8 45 -18 64 -23z m-1607 -21 c-18 -14 -47 -18 -40 -5 2 4 7 15 10 25 6 15 10 16 27 5 19 -12 19 -14 3 -25z m133 -7 c20 -21 17 -28 -6 -14 -11 7 -20 16 -20 20 0 12 10 9 26 -6z m-49 -20 c-4 -11 -1 -13 11 -9 11 3 9 -1 -5 -11 -18 -14 -27 -15 -45 -5 l-21 12 24 13 c31 17 42 17 36 0z m155 -30 c10 -7 15 -16 12 -19 -8 -7 -54 14 -54 25 0 12 23 9 42 -6z m-49 -21 c18 -13 18 -14 -3 -25 -17 -9 -29 -9 -49 0 l-26 12 25 14 c31 16 31 16 53 -1z m133 -29 c20 -21 17 -28 -6 -14 -11 7 -20 16 -20 20 0 12 10 9 26 -6z m-49 -20 c-4 -11 -1 -13 11 -9 11 3 9 -1 -5 -11 -18 -14 -27 -15 -45 -5 l-21 12 24 13 c31 17 42 17 36 0z m155 -30 c10 -7 15 -16 12 -19 -8 -7 -54 14 -54 25 0 12 23 9 42 -6z m-49 -21 c18 -13 18 -14 -3 -25 -17 -9 -29 -9 -49 0 l-26 12 25 14 c31 16 31 16 53 -1z m133 -29 c20 -21 17 -28 -6 -14 -11 7 -20 16 -20 20 0 12 10 9 26 -6z m-49 -20 c-4 -11 -1 -13 11 -9 11 3 9 -1 -5 -11 -18 -14 -27 -15 -45 -5 l-21 12 24 13 c31 17 42 17 36 0z m155 -30 c10 -7 15 -16 12 -19 -8 -7 -54 14 -54 25 0 12 23 9 42 -6z m-49 -21 c18 -13 18 -14 -3 -25 -17 -9 -29 -9 -49 0 l-26 12 25 14 c31 16 31 16 53 -1z m133 -29 c20 -21 17 -28 -6 -14 -11 7 -20 16 -20 20 0 12 10 9 26 -6z m-49 -20 c-4 -11 -1 -13 11 -9 11 3 9 -1 -5 -11 -18 -14 -27 -15 -45 -5 l-21 12 24 13 c31 17 42 17 36 0z m155 -30 c10 -7 15 -16 12 -19 -8 -7 -54 14 -54 25 0 12 23 9 42 -6z m-49 -21 c18 -13 18 -14 -3 -25 -17 -9 -29 -9 -49 0 l-26 12 25 14 c31 16 31 16 53 -1z m133 -29 c20 -21 17 -28 -6 -14 -11 7 -20 16 -20 20 0 12 10 9 26 -6z m-49 -20 c-4 -11 -1 -13 11 -9 11 3 9 -1 -5 -11 -18 -14 -27 -15 -45 -5 l-21 12 24 13 c31 17 42 17 36 0z m155 -30 c10 -7 15 -16 12 -19 -8 -7 -54 14 -54 25 0 12 23 9 42 -6z m-49 -21 c18 -13 18 -14 -3 -25 -17 -9 -29 -9 -49 0 l-26 12 25 14 c31 16 31 16 53 -1z m133 -29 c20 -21 17 -28 -6 -14 -11 7 -20 16 -20 20 0 12 10 9 26 -6z m-49 -20 c-4 -11 -1 -13 11 -9 11 3 9 -1 -5 -11 -18 -14 -27 -15 -45 -5 l-21 12 24 13 c31 17 42 17 36 0z m653 -1 c0 -3 -64 -37 -141 -76 -140 -70 -160 -75 -199 -50 -27 18 1 25 30 7 l30 -17 136 70 c138 72 144 75 144 66z m-498 -29 c10 -7 15 -16 12 -19 -8 -7 -54 14 -54 25 0 12 23 9 42 -6z m-49 -21 c18 -13 18 -14 -3 -25 -17 -9 -29 -9 -49 0 l-26 12 25 14 c31 16 31 16 53 -1z m133 -30 c17 -16 14 -18 -10 -9 -9 3 -16 10 -16 15 0 13 9 11 26 -6z m-42 -21 c3 -8 2 -12 -4 -9 -6 3 -10 1 -10 -4 0 -12 -33 -15 -44 -4 -3 4 4 13 16 20 30 16 35 16 42 -3z m109 -43 c34 -17 36 -20 17 -26 -11 -3 -20 -11 -20 -16 0 -5 -19 0 -42 12 l-42 21 25 14 c13 7 24 13 24 14 1 0 18 -9 38 -19z m1615 -12 c95 1 108 -2 165 -30 69 -34 113 -66 103 -76 -3 -3 -14 0 -23 8 -36 30 -80 41 -192 50 -93 7 -124 14 -165 35 -65 33 -83 51 -31 29 29 -12 69 -16 143 -16z m-1501 -16 c-3 -3 -11 -2 -17 2 -9 6 -9 10 1 16 14 8 27 -7 16 -18z m-37 -8 c0 -3 -5 -14 -12 -24 -10 -16 -16 -17 -35 -8 l-24 11 23 13 c24 13 48 17 48 8z m153 -47 c-2 -5 -18 -1 -35 8 -23 12 -27 18 -18 24 15 9 61 -20 53 -32z m-59 -3 c19 -15 19 -15 1 -29 -16 -12 -24 -11 -52 2 l-34 16 23 13 c29 16 39 16 62 -2z m83 -49 c-4 -11 -1 -13 10 -9 13 5 12 2 -3 -13 -18 -18 -21 -19 -46 -4 l-27 15 22 12 c30 17 50 16 44 -1z m155 -30 c27 -20 9 -27 -23 -10 -16 8 -29 17 -29 19 0 10 36 4 52 -9z m-48 -21 c19 -15 19 -15 1 -29 -16 -12 -24 -11 -52 2 l-34 16 23 13 c29 16 39 16 62 -2z m83 -50 c-4 -8 -1 -17 5 -21 7 -4 8 -3 4 4 -9 15 -5 15 31 1 l28 -11 -27 -14 c-26 -13 -31 -13 -67 8 -39 22 -39 23 -18 35 30 17 50 16 44 -2z m155 -29 c27 -20 9 -27 -23 -10 -16 8 -29 17 -29 19 0 10 36 4 52 -9z m-50 -20 c16 -12 16 -13 -1 -28 -16 -14 -21 -13 -50 2 l-32 16 23 11 c30 15 40 15 60 -1z m1608 -42 c19 -4 73 -7 119 -5 76 2 89 0 145 -28 62 -31 149 -97 111 -84 -11 3 -27 11 -35 18 -27 21 -93 36 -196 45 -83 7 -113 14 -162 39 -33 17 -64 36 -67 42 -4 6 6 4 21 -4 16 -8 45 -18 64 -23z m-1474 12 c20 -21 17 -28 -6 -14 -11 7 -20 16 -20 20 0 12 10 9 26 -6z m-49 -20 c-4 -11 -1 -13 11 -9 11 3 9 -1 -5 -11 -18 -14 -27 -15 -45 -5 l-21 12 24 13 c31 17 42 17 36 0z m155 -30 c10 -7 15 -16 12 -19 -8 -7 -54 14 -54 25 0 12 23 9 42 -6z m-49 -21 c18 -13 18 -14 -3 -25 -17 -9 -29 -9 -49 0 l-26 12 25 14 c31 16 31 16 53 -1z m133 -29 c20 -21 17 -28 -6 -14 -11 7 -20 16 -20 20 0 12 10 9 26 -6z m-49 -20 c-4 -11 -1 -13 11 -9 11 3 9 -1 -5 -11 -18 -14 -27 -15 -45 -5 l-21 12 24 13 c31 17 42 17 36 0z m155 -30 c10 -7 15 -16 12 -19 -8 -7 -54 14 -54 25 0 12 23 9 42 -6z m-49 -21 c18 -13 18 -14 -3 -25 -17 -9 -29 -9 -49 0 l-26 12 25 14 c31 16 31 16 53 -1z m133 -29 c20 -21 17 -28 -6 -14 -11 7 -20 16 -20 20 0 12 10 9 26 -6z m-49 -20 c-4 -11 -1 -13 11 -9 11 3 9 -1 -5 -11 -18 -14 -27 -15 -45 -5 l-21 12 24 13 c31 17 42 17 36 0z m155 -30 c10 -7 15 -16 12 -19 -8 -7 -54 14 -54 25 0 12 23 9 42 -6z m-49 -21 c18 -13 18 -14 -3 -25 -17 -9 -29 -9 -49 0 l-26 12 25 14 c31 16 31 16 53 -1z m133 -29 c20 -21 17 -28 -6 -14 -11 7 -20 16 -20 20 0 12 10 9 26 -6z m-49 -20 c-4 -11 -1 -13 11 -9 11 3 9 -1 -5 -11 -18 -14 -27 -15 -45 -5 l-21 12 24 13 c31 17 42 17 36 0z m1701 -27 c95 1 108 -2 165 -30 69 -34 113 -66 103 -76 -3 -3 -14 0 -23 8 -36 30 -80 41 -192 50 -93 7 -124 14 -165 35 -65 33 -83 51 -31 29 29 -12 69 -16 143 -16z m-1546 -3 c10 -7 15 -16 12 -19 -8 -7 -54 14 -54 25 0 12 23 9 42 -6z m-49 -21 c18 -13 18 -14 -3 -25 -17 -9 -29 -9 -49 0 l-26 12 25 14 c31 16 31 16 53 -1z m133 -30 c17 -16 14 -18 -10 -9 -9 3 -16 10 -16 15 0 13 9 11 26 -6z m-42 -21 c3 -8 2 -12 -4 -9 -6 3 -10 1 -10 -4 0 -12 -33 -15 -44 -4 -3 4 4 13 16 20 30 16 35 16 42 -3z m148 -18 c10 -7 15 -16 12 -19 -8 -7 -54 14 -54 25 0 12 23 9 42 -6z m-49 -21 c18 -13 18 -14 -3 -25 -17 -9 -29 -9 -49 0 l-26 12 25 14 c31 16 31 16 53 -1z m85 -47 c-7 -21 -36 -34 -49 -21 -10 10 -7 15 12 22 33 13 41 13 37 -1z m144 -22 c10 -7 15 -16 12 -19 -8 -7 -54 14 -54 25 0 12 23 9 42 -6z m-49 -21 c18 -13 18 -14 -3 -25 -17 -9 -29 -9 -49 0 l-26 12 25 14 c31 16 31 16 53 -1z m133 -29 c20 -21 17 -28 -6 -14 -11 7 -20 16 -20 20 0 12 10 9 26 -6z m-49 -20 c-4 -11 -1 -13 11 -9 11 3 9 -1 -5 -11 -18 -14 -27 -15 -45 -5 l-21 12 24 13 c31 17 42 17 36 0z m155 -30 c10 -7 15 -16 12 -19 -8 -7 -54 14 -54 25 0 12 23 9 42 -6z m1528 -32 c19 -4 73 -7 119 -5 76 2 89 0 145 -28 62 -31 149 -97 111 -84 -11 3 -27 11 -35 18 -27 21 -93 36 -196 45 -83 7 -113 14 -162 39 -33 17 -64 36 -67 42 -4 6 6 4 21 -4 16 -8 45 -18 64 -23z m-1577 11 c18 -13 18 -14 -3 -25 -17 -9 -29 -9 -49 0 l-26 12 25 14 c31 16 31 16 53 -1z m133 -29 c20 -21 17 -28 -6 -14 -11 7 -20 16 -20 20 0 12 10 9 26 -6z m-49 -20 c-4 -11 -1 -13 11 -9 11 3 9 -1 -5 -11 -18 -14 -27 -15 -45 -5 l-21 12 24 13 c31 17 42 17 36 0z m155 -30 c10 -7 15 -16 12 -19 -8 -7 -54 14 -54 25 0 12 23 9 42 -6z m-49 -21 c18 -13 18 -14 -3 -25 -17 -9 -29 -9 -49 0 l-26 12 25 14 c31 16 31 16 53 -1z m133 -29 c20 -21 17 -28 -6 -14 -11 7 -20 16 -20 20 0 12 10 9 26 -6z m807 -50 c-3 -80 -45 -222 -102 -341 -120 -252 -321 -453 -519 -519 -146 -49 -247 -28 -345 71 -62 64 -92 159 -81 265 l7 69 240 122 c264 134 287 146 272 147 -5 1 2 8 18 16 15 8 32 12 37 9 6 -4 13 1 16 9 3 9 18 16 33 16 14 1 112 45 216 99 105 54 195 97 200 96 6 -1 9 -28 8 -59z m-856 30 c-4 -11 -1 -13 11 -9 11 3 9 -1 -5 -11 -18 -14 -27 -15 -45 -5 l-21 12 24 13 c31 17 42 17 36 0z m155 -30 c10 -7 15 -16 12 -19 -8 -7 -54 14 -54 25 0 12 23 9 42 -6z m-49 -21 c18 -13 18 -14 -3 -25 -17 -9 -29 -9 -49 0 l-26 12 25 14 c31 16 31 16 53 -1z m133 -29 c20 -21 17 -28 -6 -14 -11 7 -20 16 -20 20 0 12 10 9 26 -6z m-49 -20 c-4 -11 -1 -13 11 -9 11 3 9 -1 -5 -11 -18 -14 -27 -15 -45 -5 l-21 12 24 13 c31 17 42 17 36 0z m155 -30 c10 -7 15 -16 12 -19 -8 -7 -54 14 -54 25 0 12 23 9 42 -6z m-49 -21 c18 -13 18 -14 -3 -25 -17 -9 -29 -9 -49 0 l-26 12 25 14 c31 16 31 16 53 -1z"/>
 </g>
<g id="layer105" fill="#a2b5cb" stroke="none">
 <path d="M1165 4213 c-64 -26 -112 -60 -158 -110 -133 -148 -190 -179 -349 -193 -166 -14 -203 -33 -348 -180 -97 -99 -153 -130 -247 -138 -62 -5 -63 -5 -63 -35 0 -39 54 -123 91 -143 29 -14 33 -24 43 -102 11 -75 64 -192 114 -249 44 -51 68 -64 436 -248 l390 -195 89 0 c72 0 104 5 171 29 46 16 98 38 116 49 l33 21 579 -290 578 -289 73 36 c314 157 478 247 465 256 -7 5 -8 8 -3 6 13 -4 256 -129 380 -194 55 -30 128 -68 163 -86 34 -18 62 -35 62 -38 0 -3 -53 -32 -117 -64 -109 -55 -118 -58 -147 -47 -58 23 -63 23 -112 -12 -59 -42 -129 -67 -189 -67 -44 0 -45 -1 -45 -33 0 -20 12 -50 33 -80 32 -48 34 -49 942 -506 l910 -457 11 -99 c16 -130 58 -239 122 -312 44 -51 68 -64 436 -248 l390 -195 89 0 c164 0 326 78 485 233 159 156 297 385 357 595 15 51 33 105 41 120 8 15 14 46 14 69 0 42 1 43 59 72 46 24 66 41 90 81 52 84 39 123 -61 191 -80 55 -126 69 -246 79 -132 11 -205 43 -277 121 -155 166 -196 189 -358 200 -164 12 -242 55 -351 193 -35 45 -101 91 -158 112 -24 9 -90 20 -146 24 -132 11 -205 43 -277 121 -155 166 -196 189 -358 200 -132 10 -206 40 -283 114 l-49 46 -115 -3 c-104 -3 -121 -6 -173 -32 -52 -27 -167 -128 -167 -147 0 -4 8 -10 18 -13 9 -3 23 -15 30 -27 19 -29 14 -33 -154 -114 l-142 -67 -248 130 c-137 72 -279 145 -316 163 -38 18 -68 37 -68 41 0 13 38 9 52 -6 11 -11 62 11 320 140 287 143 309 156 337 198 32 47 40 100 21 136 -14 26 -120 97 -173 116 -23 9 -89 20 -145 24 -132 11 -205 43 -277 121 -155 166 -196 189 -358 200 -163 12 -237 52 -341 183 -35 45 -101 91 -158 112 -24 9 -90 20 -146 24 -132 11 -205 43 -277 121 -155 166 -196 189 -358 200 -131 10 -206 40 -282 113 l-49 46 -105 -1 c-74 0 -118 -5 -146 -16z m148 -267 c-3 -80 -45 -222 -102 -341 -120 -252 -321 -453 -519 -519 -146 -49 -247 -28 -345 71 -63 65 -93 162 -80 267 l8 68 510 258 c281 141 515 256 520 255 6 -1 9 -27 8 -59z m656 -755 c7 -5 11 -14 7 -20 -8 -12 -56 6 -56 21 0 11 31 10 49 -1z m-45 -48 c-18 -13 -54 -18 -54 -7 0 3 5 14 10 24 9 17 14 18 36 8 24 -11 25 -13 8 -25z m141 -3 c12 -19 -5 -30 -25 -17 -11 6 -20 15 -20 19 0 12 38 10 45 -2z m-50 -24 c18 -13 18 -14 -4 -26 -18 -9 -29 -9 -50 0 l-26 12 25 14 c31 17 32 17 55 0z m144 -25 c7 -5 11 -14 7 -20 -8 -12 -56 6 -56 21 0 11 31 10 49 -1z m-49 -25 l25 -14 -28 -13 c-21 -10 -33 -10 -54 0 l-28 13 25 14 c14 7 27 13 30 13 3 0 16 -6 30 -13z m145 -26 c12 -19 -5 -30 -25 -17 -11 6 -20 15 -20 19 0 12 38 10 45 -2z m-50 -24 c18 -13 18 -14 -4 -26 -18 -9 -29 -9 -50 0 l-26 12 25 14 c31 17 32 17 55 0z m144 -25 c7 -5 11 -14 7 -20 -8 -12 -56 6 -56 21 0 11 31 10 49 -1z m-49 -25 l25 -14 -28 -13 c-21 -10 -33 -10 -54 0 l-28 13 25 14 c14 7 27 13 30 13 3 0 16 -6 30 -13z m145 -26 c12 -19 -5 -30 -25 -17 -11 6 -20 15 -20 19 0 12 38 10 45 -2z m-50 -24 c18 -13 18 -14 -4 -26 -18 -9 -29 -9 -50 0 l-26 12 25 14 c31 17 32 17 55 0z m144 -25 c7 -5 11 -14 7 -20 -8 -12 -56 6 -56 21 0 11 31 10 49 -1z m-49 -25 l25 -14 -28 -13 c-21 -10 -33 -10 -54 0 l-28 13 25 14 c14 7 27 13 30 13 3 0 16 -6 30 -13z m145 -26 c12 -19 -5 -30 -25 -17 -11 6 -20 15 -20 19 0 12 38 10 45 -2z m-50 -24 c18 -13 18 -14 -4 -26 -18 -9 -29 -9 -50 0 l-26 12 25 14 c31 17 32 17 55 0z m144 -25 c7 -5 11 -14 7 -20 -8 -12 -56 6 -56 21 0 11 31 10 49 -1z m-49 -25 l25 -14 -28 -13 c-21 -10 -33 -10 -54 0 l-28 13 25 14 c14 7 27 13 30 13 3 0 16 -6 30 -13z m145 -26 c12 -19 -5 -30 -25 -17 -11 6 -20 15 -20 19 0 12 38 10 45 -2z m-50 -24 c18 -13 18 -14 -4 -26 -18 -9 -29 -9 -50 0 l-26 12 25 14 c31 17 32 17 55 0z m144 -25 c7 -5 11 -14 7 -20 -8 -12 -56 6 -56 21 0 11 31 10 49 -1z m-49 -25 l25 -14 -28 -13 c-21 -10 -33 -10 -54 0 l-28 13 25 14 c14 7 27 13 30 13 3 0 16 -6 30 -13z m145 -26 c12 -19 -5 -30 -25 -17 -11 6 -20 15 -20 19 0 12 38 10 45 -2z m-50 -24 c18 -13 18 -14 -4 -26 -18 -9 -29 -9 -50 0 l-26 12 25 14 c31 17 32 17 55 0z m144 -25 c7 -5 11 -14 7 -20 -8 -12 -56 6 -56 21 0 11 31 10 49 -1z m-49 -25 l25 -14 -28 -13 c-21 -10 -33 -10 -54 0 l-28 13 25 14 c14 7 27 13 30 13 3 0 16 -6 30 -13z m150 -25 c0 -15 -16 -22 -34 -15 -25 9 -19 24 9 24 14 0 25 -4 25 -9z m-60 -21 c13 -9 13 -11 0 -20 -17 -11 -54 -13 -64 -3 -3 4 4 13 16 20 28 15 29 15 48 3z m294 -144 c122 -62 265 -137 320 -166 l99 -53 -27 -14 c-26 -13 -36 -9 -244 100 -119 63 -264 138 -321 167 -102 51 -104 53 -80 66 13 7 26 13 28 14 2 0 104 -51 225 -114z m511 -216 c12 -19 -5 -30 -25 -17 -11 6 -20 15 -20 19 0 12 38 10 45 -2z m-50 -24 c18 -13 18 -14 -3 -25 -27 -14 -34 -14 -58 3 -18 14 -18 15 6 25 33 13 33 13 55 -3z m144 -25 c7 -5 11 -14 7 -20 -8 -12 -56 6 -56 21 0 11 31 10 49 -1z m-49 -25 l25 -14 -28 -13 c-21 -10 -33 -10 -54 0 l-28 13 25 14 c14 7 27 13 30 13 3 0 16 -6 30 -13z m145 -26 c12 -19 -5 -30 -25 -17 -11 6 -20 15 -20 19 0 12 38 10 45 -2z m-50 -24 c18 -13 18 -14 -4 -26 -18 -9 -29 -9 -50 0 l-26 12 25 14 c31 17 32 17 55 0z m144 -25 c7 -5 11 -14 7 -20 -8 -12 -56 6 -56 21 0 11 31 10 49 -1z m-49 -25 l25 -14 -28 -13 c-21 -10 -33 -10 -54 0 l-28 13 25 14 c14 7 27 13 30 13 3 0 16 -6 30 -13z m145 -26 c12 -19 -5 -30 -25 -17 -11 6 -20 15 -20 19 0 12 38 10 45 -2z m-50 -24 c18 -13 18 -14 -4 -26 -18 -9 -29 -9 -50 0 l-26 12 25 14 c31 17 32 17 55 0z m144 -25 c7 -5 11 -14 7 -20 -8 -12 -56 6 -56 21 0 11 31 10 49 -1z m-49 -25 l25 -14 -28 -13 c-21 -10 -33 -10 -54 0 l-28 13 25 14 c14 7 27 13 30 13 3 0 16 -6 30 -13z m145 -26 c12 -19 -5 -30 -25 -17 -11 6 -20 15 -20 19 0 12 38 10 45 -2z m-50 -24 c18 -13 18 -14 -4 -26 -18 -9 -29 -9 -50 0 l-26 12 25 14 c31 17 32 17 55 0z m144 -25 c7 -5 11 -14 7 -20 -8 -12 -56 6 -56 21 0 11 31 10 49 -1z m-49 -25 l25 -14 -28 -13 c-21 -10 -33 -10 -54 0 l-28 13 25 14 c14 7 27 13 30 13 3 0 16 -6 30 -13z m150 -25 c0 -15 -16 -22 -34 -15 -25 9 -19 24 9 24 14 0 25 -4 25 -9z m-60 -21 c13 -9 13 -11 0 -20 -17 -11 -54 -13 -64 -3 -3 4 4 13 16 20 28 15 29 15 48 3z m149 -19 c7 -5 11 -14 7 -20 -8 -12 -56 6 -56 21 0 11 31 10 49 -1z m-49 -25 l25 -14 -28 -13 c-21 -10 -33 -10 -54 0 l-28 13 25 14 c14 7 27 13 30 13 3 0 16 -6 30 -13z m140 -24 c0 -14 -11 -21 -26 -15 -21 8 -17 23 6 23 11 0 20 -4 20 -8z m-51 -21 c11 -7 10 -11 -7 -20 -26 -14 -49 -14 -57 -1 -3 6 4 14 17 19 29 12 30 12 47 2z m140 -20 c7 -5 11 -14 7 -20 -8 -12 -56 6 -56 21 0 11 31 10 49 -1z m-49 -25 l25 -14 -28 -13 c-21 -10 -33 -10 -54 0 l-28 13 25 14 c14 7 27 13 30 13 3 0 16 -6 30 -13z m145 -26 c12 -19 -5 -30 -25 -17 -11 6 -20 15 -20 19 0 12 38 10 45 -2z m-50 -24 c18 -13 18 -14 -4 -26 -18 -9 -29 -9 -50 0 l-26 12 25 14 c31 17 32 17 55 0z m144 -25 c7 -5 11 -14 7 -20 -8 -12 -56 6 -56 21 0 11 31 10 49 -1z m-49 -25 l25 -14 -28 -13 c-21 -10 -33 -10 -54 0 l-28 13 25 14 c14 7 27 13 30 13 3 0 16 -6 30 -13z m145 -26 c12 -19 -5 -30 -25 -17 -11 6 -20 15 -20 19 0 12 38 10 45 -2z m-50 -24 c18 -13 18 -14 -4 -26 -18 -9 -29 -9 -50 0 l-26 12 25 14 c31 17 32 17 55 0z m144 -25 c7 -5 11 -14 7 -20 -8 -12 -56 6 -56 21 0 11 31 10 49 -1z m-49 -25 l25 -14 -28 -13 c-21 -10 -33 -10 -54 0 l-28 13 25 14 c14 7 27 13 30 13 3 0 16 -6 30 -13z m145 -26 c12 -19 -5 -30 -25 -17 -11 6 -20 15 -20 19 0 12 38 10 45 -2z m788 -54 c-3 -80 -45 -222 -102 -341 -120 -252 -321 -453 -519 -519 -146 -49 -247 -28 -345 71 -62 64 -92 159 -81 265 l7 69 240 122 c264 134 287 146 272 147 -5 1 2 8 18 16 15 8 32 12 37 9 6 -4 13 1 16 9 3 9 18 16 33 16 14 1 112 45 216 99 105 54 195 97 200 96 6 -1 9 -28 8 -59z m-838 30 c18 -13 18 -14 -4 -26 -18 -9 -29 -9 -50 0 l-26 12 25 14 c31 17 32 17 55 0z m144 -25 c7 -5 11 -14 7 -20 -8 -12 -56 6 -56 21 0 11 31 10 49 -1z m-49 -25 l25 -14 -28 -13 c-21 -10 -33 -10 -54 0 l-28 13 25 14 c14 7 27 13 30 13 3 0 16 -6 30 -13z m145 -26 c12 -19 -5 -30 -25 -17 -11 6 -20 15 -20 19 0 12 38 10 45 -2z m-50 -24 c18 -13 18 -14 -4 -26 -18 -9 -29 -9 -50 0 l-26 12 25 14 c31 17 32 17 55 0z m144 -25 c7 -5 11 -14 7 -20 -8 -12 -56 6 -56 21 0 11 31 10 49 -1z m-49 -25 l25 -14 -28 -13 c-21 -10 -33 -10 -54 0 l-28 13 25 14 c14 7 27 13 30 13 3 0 16 -6 30 -13z"/>
 </g>
<g id="layer106" fill="#aad6e5" stroke="none">
 <path d="M1185 4216 c-77 -25 -121 -55 -210 -148 -118 -124 -166 -147 -318 -159 -153 -11 -203 -36 -332 -166 -115 -114 -168 -145 -263 -151 -62 -4 -62 -5 -62 -35 0 -39 54 -123 91 -143 29 -14 33 -24 43 -102 11 -75 64 -192 114 -249 44 -51 68 -64 436 -248 l390 -195 89 0 c72 0 104 5 171 29 46 16 98 38 116 49 l33 21 579 -290 580 -290 266 137 c147 75 269 138 271 140 5 5 -50 54 -63 55 -6 1 -17 1 -25 -1 -7 -1 -22 8 -33 19 -10 12 -22 21 -26 22 -4 0 -17 2 -30 3 -12 2 -32 12 -43 24 -11 12 -25 23 -32 23 -7 1 -17 2 -24 3 -6 0 -21 11 -33 24 -11 12 -24 22 -28 23 -4 0 -17 2 -30 3 -12 2 -32 12 -43 24 -11 12 -25 23 -32 23 -7 1 -17 2 -24 3 -6 0 -21 11 -33 24 -11 12 -24 22 -28 23 -4 0 -17 2 -30 3 -12 2 -32 12 -43 24 -11 12 -25 23 -32 23 -7 1 -17 2 -24 3 -6 0 -21 11 -33 24 -11 12 -24 22 -28 23 -4 0 -17 2 -30 3 -12 2 -32 12 -43 24 -11 12 -25 23 -32 23 -7 1 -17 2 -24 3 -6 0 -21 11 -33 24 -11 12 -24 22 -28 23 -4 0 -17 2 -30 3 -12 2 -32 12 -43 24 -11 12 -25 23 -32 23 -7 1 -17 2 -24 3 -6 0 -21 11 -33 24 -11 12 -24 22 -28 23 -4 0 -17 2 -30 3 -12 2 -32 12 -43 24 -11 12 -25 23 -32 23 -7 1 -17 2 -24 3 -6 0 -21 11 -33 24 -20 22 -32 26 -58 23 -16 -2 27 68 50 82 22 14 71 0 64 -18 -7 -19 25 -37 44 -25 19 11 53 -8 46 -26 -6 -15 22 -34 42 -27 24 9 64 -7 58 -22 -7 -19 25 -37 44 -25 19 11 53 -8 46 -26 -6 -15 22 -34 42 -27 24 9 64 -7 58 -22 -7 -19 25 -37 44 -25 19 11 53 -8 46 -26 -6 -15 22 -34 42 -27 24 9 64 -7 58 -22 -7 -19 25 -37 44 -25 19 11 53 -8 46 -26 -6 -15 22 -34 42 -27 24 9 64 -7 58 -22 -7 -19 25 -37 44 -25 19 11 53 -8 46 -26 -6 -15 22 -34 42 -27 24 9 64 -7 58 -22 -7 -19 25 -37 44 -25 19 11 53 -8 46 -26 -6 -15 22 -34 42 -27 24 9 64 -7 58 -22 -7 -18 25 -37 43 -26 19 12 53 1 47 -15 -7 -18 12 -28 50 -26 18 2 39 -4 46 -12 11 -11 59 10 321 140 298 150 309 156 337 201 31 49 38 99 20 133 -14 26 -120 97 -173 117 -23 8 -89 18 -147 23 -128 9 -199 40 -275 121 -156 166 -192 187 -353 198 -165 13 -242 54 -346 185 -35 45 -101 91 -158 112 -24 9 -90 19 -148 24 -128 9 -199 40 -275 121 -156 166 -192 187 -353 198 -132 10 -211 41 -287 115 l-49 46 -95 -1 c-53 0 -114 -6 -136 -13z m132 -273 c-9 -96 -50 -231 -106 -348 -119 -251 -312 -444 -509 -509 -206 -69 -367 2 -426 189 -29 91 -31 124 -12 179 l14 40 508 256 c280 141 515 258 523 258 11 2 13 -11 8 -65z"/>
 <path d="M1914 3136 c-18 -14 -18 -15 8 -21 32 -8 78 12 57 26 -20 13 -43 11 -65 -5z"/>
 <path d="M2005 3086 c-18 -13 -18 -14 2 -20 26 -8 79 14 61 26 -19 12 -42 10 -63 -6z"/>
 <path d="M2104 3036 c-18 -14 -18 -15 8 -21 32 -8 78 12 57 26 -20 13 -43 11 -65 -5z"/>
 <path d="M2195 2986 c-18 -13 -18 -14 2 -20 26 -8 79 14 61 26 -19 12 -42 10 -63 -6z"/>
 <path d="M2294 2936 c-18 -14 -18 -15 8 -21 32 -8 78 12 57 26 -20 13 -43 11 -65 -5z"/>
 <path d="M2385 2886 c-18 -13 -18 -14 2 -20 26 -8 79 14 61 26 -19 12 -42 10 -63 -6z"/>
 <path d="M2484 2836 c-18 -14 -18 -15 8 -21 32 -8 78 12 57 26 -20 13 -43 11 -65 -5z"/>
 <path d="M2575 2786 c-18 -13 -18 -14 2 -20 26 -8 79 14 61 26 -19 12 -42 10 -63 -6z"/>
 <path d="M2674 2736 c-18 -14 -18 -15 8 -21 32 -8 78 12 57 26 -20 13 -43 11 -65 -5z"/>
 <path d="M2765 2686 c-18 -13 -18 -14 2 -20 26 -8 79 14 61 26 -19 12 -42 10 -63 -6z"/>
 <path d="M2864 2636 c-18 -14 -18 -15 8 -21 32 -8 78 12 57 26 -20 13 -43 11 -65 -5z"/>
 <path d="M2955 2586 c-18 -13 -18 -14 2 -20 26 -8 79 14 61 26 -19 12 -42 10 -63 -6z"/>
 <path d="M4355 2556 c-22 -7 -58 -22 -80 -34 -51 -26 -155 -132 -137 -139 20 -8 53 -46 49 -58 -2 -5 -67 -41 -145 -80 -78 -38 -145 -74 -149 -79 -4 -5 2 -4 13 2 24 13 62 -7 50 -26 -8 -13 23 -31 42 -25 24 9 64 -7 58 -22 -7 -19 25 -37 44 -25 19 11 53 -8 46 -26 -6 -15 22 -34 42 -27 24 9 64 -7 58 -22 -7 -19 25 -37 44 -25 19 11 53 -8 46 -26 -6 -15 22 -34 42 -27 24 9 64 -7 58 -22 -7 -19 25 -37 44 -25 19 11 53 -8 46 -26 -6 -15 22 -34 42 -27 24 9 64 -7 58 -22 -7 -18 25 -37 43 -26 19 12 53 1 47 -15 -6 -16 23 -34 42 -27 24 9 64 -7 58 -22 -7 -20 12 -29 52 -27 27 2 33 0 29 -12 -7 -17 20 -36 41 -29 24 9 64 -7 58 -22 -7 -19 25 -37 44 -25 19 11 53 -8 46 -26 -6 -15 22 -34 42 -27 24 9 64 -7 58 -22 -7 -19 25 -37 44 -25 19 11 53 -8 46 -26 -6 -15 22 -34 42 -27 24 9 64 -7 58 -22 -7 -19 25 -37 44 -25 19 11 53 -8 46 -26 -6 -15 22 -34 42 -27 24 9 64 -7 58 -22 -7 -19 25 -37 44 -25 19 11 53 -8 46 -26 -6 -15 22 -34 42 -27 24 9 64 -7 58 -22 -7 -18 25 -37 43 -26 7 5 21 6 31 4 10 -3 105 40 218 96 110 56 203 101 207 101 14 0 -4 -134 -31 -225 -94 -328 -334 -617 -582 -699 -206 -69 -367 2 -426 189 -29 91 -31 124 -12 179 13 39 19 42 252 160 131 67 240 126 242 133 3 11 -26 25 -61 28 -9 1 -27 11 -38 23 -11 12 -25 23 -32 23 -7 1 -17 2 -24 3 -6 0 -21 11 -33 24 -11 12 -24 22 -28 23 -4 0 -17 2 -30 3 -12 2 -32 12 -43 24 -11 12 -25 23 -32 23 -7 1 -17 2 -24 3 -6 0 -21 11 -33 24 -11 12 -24 22 -28 23 -4 0 -17 2 -30 3 -12 2 -32 12 -43 24 -11 12 -25 23 -32 23 -7 1 -17 2 -24 3 -6 0 -21 11 -33 24 -11 12 -24 22 -28 23 -4 0 -17 2 -30 3 -12 2 -32 12 -43 24 -11 12 -25 23 -32 23 -7 1 -17 2 -24 3 -6 0 -21 11 -33 24 -11 12 -24 22 -28 23 -4 0 -17 2 -30 3 -12 2 -32 12 -43 24 -11 12 -25 23 -32 23 -7 1 -17 2 -23 3 -6 0 -18 9 -28 19 -10 9 -20 17 -24 18 -4 0 -17 2 -30 3 -12 2 -32 12 -43 24 -20 22 -31 26 -58 22 -7 -1 -22 8 -33 19 -10 12 -22 21 -26 22 -4 0 -17 2 -30 3 -12 2 -32 12 -43 24 -11 12 -25 23 -32 23 -7 1 -17 2 -24 3 -6 0 -21 11 -33 24 -11 12 -24 22 -28 23 -4 0 -17 2 -30 3 -12 2 -32 12 -43 24 -11 12 -25 23 -32 23 -7 1 -17 2 -24 3 -6 0 -21 11 -33 24 -11 12 -24 22 -28 23 -4 0 -17 2 -30 3 -12 2 -32 12 -43 24 -11 12 -25 23 -32 23 -7 1 -17 2 -24 3 -6 0 -21 11 -33 24 -11 12 -24 22 -28 23 -4 0 -17 2 -30 3 -12 2 -32 12 -43 24 -19 21 -31 26 -56 23 -6 -1 -19 9 -27 21 l-16 23 -126 -64 c-69 -35 -133 -61 -142 -58 -9 3 -31 11 -47 18 -29 11 -35 9 -82 -25 -63 -45 -121 -66 -184 -66 -49 0 -49 0 -49 -33 0 -20 12 -50 33 -80 32 -48 34 -49 942 -506 l910 -457 11 -99 c16 -130 58 -239 122 -312 44 -51 68 -64 436 -248 l390 -195 89 0 c164 0 326 78 485 233 159 156 297 385 357 595 15 51 33 105 41 120 8 15 14 46 14 69 0 42 1 43 59 72 46 24 66 41 90 81 52 84 39 123 -61 191 -81 55 -127 70 -248 79 -128 9 -199 40 -275 121 -156 166 -192 187 -353 198 -167 13 -246 57 -356 195 -35 45 -101 91 -158 112 -24 9 -90 19 -148 24 -128 9 -199 40 -275 121 -156 166 -192 187 -353 198 -132 10 -211 41 -287 115 l-49 46 -95 -1 c-53 0 -114 -6 -136 -13z"/>
 <path d="M3054 2536 c-18 -14 -18 -15 8 -21 32 -8 78 12 57 26 -20 13 -43 11 -65 -5z"/>
 <path d="M3145 2496 c-18 -13 -18 -14 2 -20 26 -8 79 14 61 26 -19 12 -42 10 -63 -6z"/>
 <path d="M3840 2144 l-25 -15 25 7 c14 3 29 10 35 15 15 14 -7 10 -35 -7z"/>
 <path d="M3895 2106 c-18 -13 -18 -14 2 -20 26 -8 79 14 61 26 -19 12 -42 10 -63 -6z"/>
 <path d="M3994 2056 c-18 -14 -18 -15 8 -21 32 -8 78 12 57 26 -20 13 -43 11 -65 -5z"/>
 <path d="M4085 2006 c-18 -13 -18 -14 2 -20 26 -8 79 14 61 26 -19 12 -42 10 -63 -6z"/>
 <path d="M4184 1956 c-18 -14 -18 -15 8 -21 32 -8 78 12 57 26 -20 13 -43 11 -65 -5z"/>
 <path d="M4275 1906 c-18 -13 -18 -14 2 -20 26 -8 79 14 61 26 -19 12 -42 10 -63 -6z"/>
 <path d="M4374 1856 c-18 -14 -18 -15 8 -21 32 -8 78 12 57 26 -20 13 -43 11 -65 -5z"/>
 <path d="M4465 1806 c-18 -13 -18 -14 2 -20 26 -8 79 14 61 26 -19 12 -42 10 -63 -6z"/>
 <path d="M4564 1756 c-18 -14 -18 -15 8 -21 32 -8 78 12 57 26 -20 13 -43 11 -65 -5z"/>
 <path d="M4655 1716 c-18 -13 -18 -14 2 -20 26 -8 79 14 61 26 -19 12 -42 10 -63 -6z"/>
 <path d="M4755 1666 c-18 -13 -18 -14 2 -20 11 -4 33 -2 49 4 23 9 25 13 14 20 -21 14 -43 12 -65 -4z"/>
 <path d="M4835 1626 c-18 -13 -18 -14 2 -20 26 -8 79 14 61 26 -19 12 -42 10 -63 -6z"/>
 <path d="M4934 1576 c-18 -14 -18 -15 8 -21 32 -8 78 12 57 26 -20 13 -43 11 -65 -5z"/>
 <path d="M5025 1526 c-18 -13 -18 -14 2 -20 26 -8 79 14 61 26 -19 12 -42 10 -63 -6z"/>
 <path d="M5124 1476 c-18 -14 -18 -15 8 -21 32 -8 78 12 57 26 -20 13 -43 11 -65 -5z"/>
 <path d="M5215 1426 c-18 -13 -18 -14 2 -20 26 -8 79 14 61 26 -19 12 -42 10 -63 -6z"/>
 <path d="M5314 1376 c-18 -14 -18 -15 8 -21 32 -8 78 12 57 26 -20 13 -43 11 -65 -5z"/>
 <path d="M5405 1326 c-18 -13 -18 -14 2 -20 26 -8 79 14 61 26 -19 12 -42 10 -63 -6z"/>
 <path d="M5504 1276 c-18 -14 -18 -15 8 -21 32 -8 78 12 57 26 -20 13 -43 11 -65 -5z"/>
 <path d="M5595 1226 c-18 -13 -18 -14 2 -20 26 -8 79 14 61 26 -19 12 -42 10 -63 -6z"/>
 <path d="M5694 1176 c-18 -14 -18 -15 8 -21 32 -8 78 12 57 26 -20 13 -43 11 -65 -5z"/>
 </g>
<g id="layer107" fill="#cbfcfe" stroke="none">
 <path d="M1185 4216 c-74 -23 -110 -49 -207 -147 -125 -126 -171 -149 -319 -159 -155 -12 -211 -40 -331 -165 -106 -110 -167 -146 -261 -153 -31 -3 -57 -6 -57 -7 0 -1 12 -34 26 -71 14 -38 24 -71 22 -73 -1 -2 15 -15 36 -28 l39 -25 -7 41 -6 41 50 25 50 25 1 -22 c1 -16 3 -18 6 -6 3 12 12 15 36 12 26 -3 73 17 242 105 116 59 343 175 506 257 262 132 297 152 302 176 4 19 19 34 48 48 22 12 42 20 44 18 9 -9 -27 -246 -50 -323 -64 -218 -205 -454 -362 -605 -161 -156 -311 -230 -471 -231 l-87 0 325 -164 325 -164 81 0 c63 -1 98 5 167 28 48 17 100 39 117 51 l29 21 581 -291 581 -291 270 138 c148 76 269 140 269 143 0 10 -67 50 -84 50 -10 0 -29 9 -43 20 -14 11 -33 20 -42 20 -10 0 -32 11 -51 25 -19 14 -40 25 -48 25 -8 0 -27 11 -44 25 -16 14 -37 25 -47 25 -9 0 -32 11 -51 25 -19 14 -40 25 -48 25 -8 0 -27 11 -44 25 -16 14 -37 25 -47 25 -9 0 -32 11 -51 25 -19 14 -40 25 -48 25 -8 0 -27 11 -44 25 -16 14 -37 25 -47 25 -9 0 -32 11 -51 25 -19 14 -40 25 -48 25 -8 0 -27 11 -44 25 -16 14 -37 25 -47 25 -9 0 -32 11 -51 25 -19 14 -40 25 -48 25 -8 0 -27 11 -44 25 -16 14 -37 25 -47 25 -9 0 -32 11 -51 25 -19 14 -41 25 -50 25 -9 0 -25 9 -35 20 -10 11 -31 24 -46 28 l-27 7 25 43 c19 33 31 42 52 42 33 0 56 -14 47 -29 -7 -11 40 -28 51 -18 10 11 45 -14 39 -28 -6 -15 14 -25 52 -25 33 0 57 -14 48 -29 -7 -11 40 -28 51 -18 10 11 45 -14 39 -28 -6 -15 14 -25 52 -25 33 0 57 -14 48 -29 -7 -11 40 -28 51 -18 10 11 45 -14 39 -28 -6 -15 14 -25 52 -25 33 0 57 -14 48 -29 -7 -11 40 -28 51 -18 10 11 45 -14 39 -28 -6 -15 14 -25 52 -25 33 0 57 -14 48 -29 -7 -11 40 -28 51 -18 10 11 45 -14 39 -28 -6 -15 14 -25 52 -25 33 0 57 -14 48 -29 -7 -11 40 -28 51 -18 10 11 45 -14 39 -28 -6 -15 14 -25 52 -25 33 0 57 -14 48 -29 -6 -10 29 -24 50 -20 27 5 46 -2 41 -15 -7 -17 13 -26 53 -26 16 0 35 -6 42 -14 11 -11 62 11 321 140 298 150 309 156 337 201 33 52 38 101 15 137 -20 30 -114 93 -169 113 -22 8 -88 18 -146 23 -128 9 -199 40 -275 121 -156 166 -192 187 -353 198 -165 13 -242 54 -346 185 -35 45 -101 91 -158 112 -24 9 -90 19 -148 24 -128 9 -199 40 -275 121 -156 166 -192 187 -353 198 -132 10 -211 41 -287 115 l-49 46 -95 -1 c-53 0 -114 -6 -136 -13z"/>
 <path d="M1914 3136 c-18 -14 -18 -15 9 -21 32 -8 67 12 45 26 -19 12 -32 11 -54 -5z"/>
 <path d="M2005 3086 c-18 -13 -18 -14 3 -20 28 -9 71 12 51 25 -20 12 -32 11 -54 -5z"/>
 <path d="M2104 3036 c-18 -14 -18 -15 9 -21 32 -8 67 12 45 26 -19 12 -32 11 -54 -5z"/>
 <path d="M2195 2986 c-18 -13 -18 -14 3 -20 28 -9 71 12 51 25 -20 12 -32 11 -54 -5z"/>
 <path d="M2294 2936 c-18 -14 -18 -15 9 -21 32 -8 67 12 45 26 -19 12 -32 11 -54 -5z"/>
 <path d="M2385 2886 c-18 -13 -18 -14 3 -20 28 -9 71 12 51 25 -20 12 -32 11 -54 -5z"/>
 <path d="M2484 2836 c-18 -14 -18 -15 9 -21 32 -8 67 12 45 26 -19 12 -32 11 -54 -5z"/>
 <path d="M2575 2786 c-18 -13 -18 -14 3 -20 28 -9 71 12 51 25 -20 12 -32 11 -54 -5z"/>
 <path d="M2674 2736 c-18 -14 -18 -15 9 -21 32 -8 67 12 45 26 -19 12 -32 11 -54 -5z"/>
 <path d="M2765 2686 c-18 -13 -18 -14 3 -20 28 -9 71 12 51 25 -20 12 -32 11 -54 -5z"/>
 <path d="M2864 2636 c-18 -14 -18 -15 9 -21 32 -8 67 12 45 26 -19 12 -32 11 -54 -5z"/>
 <path d="M2955 2586 c-18 -13 -18 -14 3 -20 28 -9 71 12 51 25 -20 12 -32 11 -54 -5z"/>
 <path d="M4343 2551 c-64 -22 -114 -56 -173 -117 -30 -31 -41 -48 -32 -51 20 -8 53 -46 49 -58 -2 -5 -68 -43 -148 -82 -79 -40 -137 -72 -129 -72 33 2 41 -2 50 -26 7 -20 17 -25 42 -25 39 0 63 -13 54 -29 -7 -11 40 -28 51 -18 10 11 45 -14 39 -28 -6 -15 14 -25 52 -25 33 0 57 -14 48 -29 -7 -11 40 -28 51 -18 10 11 45 -14 39 -28 -6 -15 14 -25 52 -25 33 0 57 -14 48 -29 -7 -11 40 -28 51 -18 10 11 45 -14 39 -28 -6 -15 14 -25 52 -25 33 0 57 -14 48 -29 -6 -10 29 -24 50 -20 27 5 46 -2 41 -15 -7 -16 13 -26 51 -26 33 0 57 -14 48 -28 -7 -12 16 -22 54 -22 19 0 29 -6 33 -20 4 -15 14 -20 39 -20 39 0 63 -13 54 -29 -7 -11 40 -28 51 -18 10 11 45 -14 39 -28 -6 -15 14 -25 52 -25 33 0 57 -14 48 -29 -7 -11 40 -28 51 -18 10 11 45 -14 39 -28 -6 -15 14 -25 52 -25 33 0 57 -14 48 -29 -7 -11 40 -28 51 -18 10 11 45 -14 39 -28 -6 -15 14 -25 52 -25 33 0 57 -14 48 -29 -7 -11 40 -28 51 -18 10 11 45 -14 39 -28 -6 -15 14 -25 52 -25 33 0 57 -14 48 -29 -7 -11 26 -21 61 -18 12 1 114 47 226 102 180 88 205 103 210 127 5 19 19 34 48 48 22 12 42 20 44 18 9 -9 -27 -246 -50 -323 -64 -218 -205 -454 -362 -605 -161 -156 -311 -230 -471 -231 l-87 0 325 -164 325 -164 81 0 c326 -3 708 376 839 830 15 52 31 99 37 106 5 6 12 37 15 68 l6 56 58 29 c45 23 64 41 85 76 49 84 33 135 -62 199 -79 52 -125 66 -244 75 -128 9 -199 40 -275 121 -156 166 -192 187 -353 198 -167 13 -246 57 -356 195 -35 45 -101 91 -158 112 -24 9 -90 19 -148 24 -128 9 -199 40 -275 121 -156 166 -192 187 -353 198 -132 10 -211 41 -287 115 l-49 46 -95 0 c-66 -1 -112 -6 -148 -19z"/>
 <path d="M3054 2536 c-18 -14 -18 -15 9 -21 32 -8 67 12 45 26 -19 12 -32 11 -54 -5z"/>
 <path d="M3145 2496 c-18 -13 -18 -14 3 -20 28 -9 71 12 51 25 -20 12 -32 11 -54 -5z"/>
 <path d="M3670 2059 c-116 -60 -127 -62 -187 -38 -30 12 -35 11 -60 -12 -43 -40 -122 -73 -185 -77 -32 -3 -58 -6 -58 -7 0 -1 11 -32 24 -68 14 -35 23 -67 20 -70 -3 -3 5 -12 18 -20 12 -8 427 -217 921 -465 l899 -451 49 24 49 25 1 -22 c1 -17 3 -18 6 -6 3 13 11 16 32 12 21 -5 65 14 197 81 93 48 200 104 238 125 64 35 67 39 48 49 -11 6 -27 11 -34 11 -8 0 -29 11 -48 25 -19 14 -40 25 -48 25 -8 0 -27 11 -44 25 -16 14 -37 25 -47 25 -9 0 -32 11 -51 25 -19 14 -40 25 -48 25 -8 0 -27 11 -44 25 -16 14 -37 25 -47 25 -9 0 -32 11 -51 25 -19 14 -40 25 -48 25 -8 0 -27 11 -44 25 -16 14 -37 25 -47 25 -9 0 -32 11 -51 25 -19 14 -40 25 -48 25 -8 0 -27 11 -44 25 -16 14 -37 25 -47 25 -9 0 -32 11 -51 25 -19 14 -40 25 -48 25 -8 0 -25 9 -39 20 -14 11 -33 20 -42 20 -10 0 -32 11 -51 25 -19 14 -42 25 -53 25 -10 0 -30 9 -44 20 -14 11 -33 20 -42 20 -10 0 -32 11 -51 25 -19 14 -40 25 -48 25 -8 0 -27 11 -44 25 -16 14 -37 25 -47 25 -9 0 -32 11 -51 25 -19 14 -40 25 -48 25 -8 0 -27 11 -44 25 -16 14 -37 25 -47 25 -9 0 -32 11 -51 25 -19 14 -40 25 -48 25 -8 0 -27 11 -44 25 -16 14 -37 25 -47 25 -9 0 -32 11 -51 25 -19 14 -41 25 -50 25 -9 0 -25 9 -35 20 -10 11 -21 20 -24 19 -3 0 -58 -27 -121 -60z"/>
 <path d="M3895 2106 c-18 -13 -18 -14 3 -20 28 -9 71 12 51 25 -20 12 -32 11 -54 -5z"/>
 <path d="M3994 2056 c-18 -14 -18 -15 9 -21 32 -8 67 12 45 26 -19 12 -32 11 -54 -5z"/>
 <path d="M4085 2006 c-18 -13 -18 -14 3 -20 28 -9 71 12 51 25 -20 12 -32 11 -54 -5z"/>
 <path d="M4184 1956 c-18 -14 -18 -15 9 -21 32 -8 67 12 45 26 -19 12 -32 11 -54 -5z"/>
 <path d="M4275 1906 c-18 -13 -18 -14 3 -20 28 -9 71 12 51 25 -20 12 -32 11 -54 -5z"/>
 <path d="M4374 1856 c-18 -14 -18 -15 9 -21 32 -8 67 12 45 26 -19 12 -32 11 -54 -5z"/>
 <path d="M4465 1806 c-18 -13 -18 -14 3 -20 28 -9 71 12 51 25 -20 12 -32 11 -54 -5z"/>
 <path d="M4564 1756 c-18 -14 -18 -15 9 -21 32 -8 67 12 45 26 -19 12 -32 11 -54 -5z"/>
 <path d="M4655 1716 c-18 -13 -18 -14 3 -20 28 -9 71 12 51 25 -20 12 -32 11 -54 -5z"/>
 <path d="M4755 1666 c-18 -13 -18 -14 3 -20 28 -9 71 12 51 25 -20 12 -32 11 -54 -5z"/>
 <path d="M4835 1626 c-18 -13 -18 -14 3 -20 28 -9 71 12 51 25 -20 12 -32 11 -54 -5z"/>
 <path d="M4934 1576 c-18 -14 -18 -15 9 -21 32 -8 67 12 45 26 -19 12 -32 11 -54 -5z"/>
 <path d="M5025 1526 c-18 -13 -18 -14 3 -20 28 -9 71 12 51 25 -20 12 -32 11 -54 -5z"/>
 <path d="M5124 1476 c-18 -14 -18 -15 9 -21 32 -8 67 12 45 26 -19 12 -32 11 -54 -5z"/>
 <path d="M5215 1426 c-18 -13 -18 -14 3 -20 28 -9 71 12 51 25 -20 12 -32 11 -54 -5z"/>
 <path d="M5314 1376 c-18 -14 -18 -15 9 -21 32 -8 67 12 45 26 -19 12 -32 11 -54 -5z"/>
 <path d="M5405 1326 c-18 -13 -18 -14 3 -20 28 -9 71 12 51 25 -20 12 -32 11 -54 -5z"/>
 <path d="M5504 1276 c-18 -14 -18 -15 9 -21 32 -8 67 12 45 26 -19 12 -32 11 -54 -5z"/>
 <path d="M5595 1226 c-18 -13 -18 -14 3 -20 28 -9 71 12 51 25 -20 12 -32 11 -54 -5z"/>
 <path d="M5694 1176 c-18 -14 -18 -15 9 -21 32 -8 67 12 45 26 -19 12 -32 11 -54 -5z"/>
 </g>

</svg>