<!DOCTYPE svg PUBLIC "-//W3C//DTD SVG 20010904//EN" "http://www.w3.org/TR/2001/REC-SVG-20010904/DTD/svg10.dtd">
<svg version="1.0" xmlns="http://www.w3.org/2000/svg" width="48px" height="73px" viewBox="0 0 480 730" preserveAspectRatio="xMidYMid meet">
<g id="layer101" fill="#d8834c" stroke="none">
 <path d="M260 724 c-8 -1 -55 -8 -103 -15 l-88 -11 -30 -59 c-28 -57 -29 -61 -19 -131 6 -40 13 -83 16 -95 3 -16 0 -23 -11 -23 -27 0 -16 -32 28 -79 36 -39 45 -56 51 -99 5 -36 13 -56 26 -65 13 -8 20 -23 20 -45 0 -44 14 -68 50 -87 32 -17 83 -11 101 12 7 8 18 35 24 61 l13 47 66 -1 c62 -1 67 1 64 20 -2 15 -16 24 -51 34 l-48 13 6 37 c4 20 17 62 30 92 21 49 36 116 60 275 l6 40 -86 43 c-82 41 -92 44 -125 36z"/>
 </g>
<g id="layer102" fill="#abd0cf" stroke="none">
 <path d="M260 724 c-8 -1 -55 -8 -103 -15 l-88 -11 -30 -59 c-28 -57 -29 -62 -19 -127 21 -138 15 -127 84 -171 45 -28 65 -47 68 -65 4 -20 1 -26 -13 -26 -11 0 -19 -5 -19 -12 0 -6 -11 -1 -24 11 l-23 22 9 -53 c5 -31 17 -60 28 -70 12 -10 20 -29 20 -48 0 -42 15 -67 50 -85 37 -19 87 -10 106 20 22 34 31 97 13 95 -29 -4 -37 1 -32 20 5 18 21 24 60 23 12 -1 33 55 33 88 0 9 11 41 25 70 21 47 35 112 60 274 l6 40 -86 43 c-82 41 -92 44 -125 36z"/>
 </g>
<g id="layer103" fill="#defefe" stroke="none">
 <path d="M175 713 c-54 -7 -101 -15 -102 -17 -2 -1 3 -65 11 -141 10 -90 12 -144 6 -156 -13 -23 -13 -42 0 -34 5 3 10 15 10 25 0 24 20 31 130 44 44 6 65 3 101 -13 49 -22 76 -46 61 -55 -4 -3 -31 5 -58 17 -43 20 -54 21 -94 11 -33 -8 -40 -13 -25 -16 11 -3 1 -6 -22 -7 -24 0 -43 -3 -43 -5 0 -3 11 -26 24 -53 25 -48 22 -73 -9 -73 -7 0 -16 -7 -19 -16 -9 -24 -8 -25 17 -11 12 7 36 13 52 12 87 -3 97 -6 120 -31 l24 -25 10 38 c6 21 11 45 11 54 0 9 11 41 25 70 21 47 35 112 60 274 l6 40 -86 43 c-47 23 -91 42 -98 41 -6 -1 -57 -8 -112 -16z"/>
 <path d="M257 204 c-4 -4 -24 -10 -44 -13 l-37 -6 -2 -55 c-1 -30 -3 -64 -5 -74 -6 -28 49 -58 90 -50 37 8 59 36 68 86 5 32 3 35 -18 34 -20 -1 -25 5 -27 34 -4 37 -14 55 -25 44z"/>
 </g>

</svg>