<!DOCTYPE svg PUBLIC "-//W3C//DTD SVG 20010904//EN" "http://www.w3.org/TR/2001/REC-SVG-20010904/DTD/svg10.dtd">
<svg version="1.0" xmlns="http://www.w3.org/2000/svg" width="48px" height="82px" viewBox="0 0 480 820" preserveAspectRatio="xMidYMid meet">
<g id="layer101" fill="#383e46" stroke="none">
<path d="M260 814 c-8 -1 -55 -8 -103 -15 l-88 -11 -30 -59 c-28 -57 -29 -61 -19 -131 6 -40 13 -83 16 -95 3 -16 0 -23 -11 -23 -27 0 -16 -32 28 -79 36 -38 45 -56 51 -99 5 -36 13 -56 28 -66 19 -13 20 -21 14 -71 -5 -45 -3 -57 9 -61 9 -4 15 -19 15 -40 0 -39 21 -54 76 -54 40 0 63 20 64 56 0 11 6 26 13 33 7 7 12 37 12 69 l0 57 68 -1 c63 -1 68 1 65 20 -2 15 -16 24 -51 34 l-48 13 6 37 c4 20 17 62 30 92 21 49 36 116 60 275 l6 40 -86 43 c-82 41 -92 44 -125 36z"/>
</g>
<g id="layer102" fill="#80491d" stroke="none">
</g>
<g id="layer103" fill="#ad432f" stroke="none">
<path d="M260 814 c-8 -1 -55 -8 -103 -15 l-88 -11 -30 -59 c-28 -57 -29 -61 -19 -131 6 -40 13 -83 16 -95 3 -16 0 -23 -11 -23 -27 0 -16 -32 28 -79 36 -39 45 -56 51 -99 5 -36 13 -56 26 -65 12 -7 20 -23 20 -39 0 -26 1 -26 30 -16 31 10 102 7 132 -6 13 -6 17 -2 20 21 3 28 4 28 71 27 63 -1 68 1 65 20 -2 15 -16 24 -51 34 l-48 13 6 37 c4 20 17 62 30 92 21 49 36 116 60 275 l6 40 -86 43 c-82 41 -92 44 -125 36z"/>
</g>
<g id="layer104" fill="#ab6c40" stroke="none">
<path d="M260 814 c-8 -1 -55 -8 -103 -15 l-88 -11 -30 -59 c-28 -57 -29 -61 -19 -131 6 -40 13 -83 16 -95 3 -16 0 -23 -11 -23 -27 0 -16 -32 30 -81 33 -35 45 -56 45 -78 0 -36 15 -48 30 -24 10 16 11 16 5 -2 -17 -47 -17 -55 -1 -61 9 -4 16 -18 16 -35 0 -27 1 -28 30 -17 31 10 102 7 132 -6 13 -6 17 -2 20 21 3 28 4 28 71 27 63 -1 68 1 65 20 -2 15 -16 24 -51 34 l-48 13 6 37 c4 20 17 62 30 92 21 49 36 116 60 275 l6 40 -86 43 c-82 41 -92 44 -125 36z m-70 -511 c-8 -3 -23 -15 -33 -27 -10 -11 -15 -14 -11 -6 14 28 26 40 43 39 13 0 14 -1 1 -6z m136 -8 c24 -18 7 -19 -26 0 -16 9 -19 14 -9 15 8 0 24 -7 35 -15z"/>
</g>
<g id="layer105" fill="#f45534" stroke="none">
<path d="M260 814 c-8 -1 -55 -8 -103 -15 l-88 -11 -30 -59 c-28 -57 -29 -61 -19 -131 6 -40 13 -83 16 -95 3 -16 0 -23 -11 -23 -25 0 -12 -36 33 -84 30 -32 42 -54 42 -75 0 -36 15 -48 30 -24 10 16 11 16 5 -2 -17 -47 -17 -55 -1 -61 9 -4 16 -18 16 -35 0 -27 1 -28 30 -17 31 10 102 7 132 -6 13 -6 17 -2 20 21 3 28 4 28 71 27 63 -1 68 1 65 20 -2 15 -16 24 -51 34 l-48 13 6 37 c4 20 17 62 30 92 21 49 36 116 60 275 l6 40 -86 43 c-82 41 -92 44 -125 36z m-92 -446 c2 -19 -2 -27 -20 -31 -12 -4 -27 -1 -33 5 -7 8 -6 9 2 4 6 -3 18 -3 27 0 11 4 13 11 5 31 -7 19 -6 24 3 21 7 -3 14 -16 16 -30z m29 -67 c-16 -3 -35 -17 -42 -31 -8 -14 -14 -20 -15 -15 0 25 32 55 58 54 l27 -1 -28 -7z m129 -6 c24 -18 7 -19 -26 0 -16 9 -19 14 -9 15 8 0 24 -7 35 -15z m8 -39 c-3 -8 -12 -17 -20 -20 -9 -3 -12 -11 -8 -17 4 -8 3 -9 -4 -5 -26 16 -9 43 35 55 1 1 0 -5 -3 -13z"/>
</g>
<g id="layer106" fill="#978874" stroke="none">
<path d="M260 814 c-8 -1 -55 -8 -103 -15 l-88 -11 -30 -59 c-28 -57 -29 -61 -19 -131 6 -40 13 -83 16 -95 3 -16 0 -23 -11 -23 -25 0 -12 -36 33 -84 30 -33 42 -54 42 -76 0 -30 13 -40 25 -20 19 31 243 109 256 89 3 -6 16 12 27 39 19 44 33 111 57 267 l6 40 -86 43 c-82 41 -92 44 -125 36z m-92 -446 c2 -19 -2 -27 -20 -31 -12 -4 -27 -1 -33 5 -7 8 -6 9 2 4 6 -3 18 -3 27 0 11 4 13 11 5 31 -7 19 -6 24 3 21 7 -3 14 -16 16 -30z"/>
<path d="M197 303 c-35 -5 -56 -46 -50 -95 5 -35 6 -36 34 -26 30 10 101 7 132 -6 14 -7 17 -3 17 24 l0 33 71 -5 c67 -5 70 -4 67 15 -4 29 -88 55 -101 32 -4 -8 -12 -15 -17 -15 -17 0 -49 -33 -43 -43 3 -6 1 -7 -5 -3 -21 13 -13 36 16 47 l27 11 -35 18 c-34 19 -57 21 -113 13z"/>
</g>
<g id="layer107" fill="#799193" stroke="none">
<path d="M202 303 c-40 -5 -61 -42 -55 -95 5 -35 6 -36 34 -26 30 10 101 7 132 -6 14 -7 17 -3 17 24 l0 33 71 -5 c67 -5 70 -4 67 15 -4 29 -88 55 -101 32 -4 -8 -12 -15 -17 -15 -15 0 -49 -33 -44 -42 3 -4 -1 -5 -9 -2 -21 7 -9 44 14 44 10 0 20 4 23 8 6 11 -59 43 -82 40 -9 0 -32 -3 -50 -5z"/>
</g>
<g id="layer108" fill="#e4864c" stroke="none">
<path d="M260 814 c-8 -1 -55 -8 -103 -15 l-88 -11 -30 -59 c-28 -57 -29 -61 -19 -131 6 -40 13 -83 16 -95 3 -16 0 -23 -11 -23 -25 0 -12 -36 33 -84 30 -33 42 -54 42 -76 0 -30 13 -40 25 -20 19 31 243 109 256 89 3 -6 16 12 27 39 19 44 33 111 57 267 l6 40 -86 43 c-82 41 -92 44 -125 36z m-92 -447 c2 -19 -1 -27 -12 -27 -8 0 -16 -5 -18 -11 -2 -7 -10 -4 -18 7 -8 10 -10 15 -3 11 6 -4 18 -4 27 -1 11 4 13 11 5 31 -7 19 -6 24 3 21 7 -3 14 -17 16 -31z"/>
<path d="M205 303 c-39 -5 -63 -45 -57 -96 3 -26 8 -35 16 -29 20 16 102 20 127 6 35 -19 39 -17 39 17 l0 32 71 -5 c67 -5 70 -4 67 15 -4 29 -88 55 -101 32 -4 -8 -12 -15 -17 -15 -15 0 -49 -33 -44 -42 3 -4 -1 -5 -9 -2 -21 7 -9 44 14 44 32 0 29 16 -7 33 -34 17 -41 17 -99 10z"/>
</g>
<g id="layer109" fill="#b3a694" stroke="none">
<path d="M260 814 c-8 -1 -55 -8 -103 -15 l-88 -11 -30 -59 c-28 -57 -29 -62 -19 -127 21 -137 15 -127 85 -172 50 -33 65 -48 65 -66 0 -15 -6 -24 -15 -24 -8 0 -15 -5 -15 -12 0 -6 -10 -2 -23 10 l-23 22 4 -35 c4 -35 15 -44 28 -24 9 16 139 73 198 88 36 9 51 9 56 1 4 -6 16 10 28 38 19 44 33 111 57 267 l6 40 -86 43 c-82 41 -92 44 -125 36z"/>
<path d="M205 303 c-39 -5 -63 -45 -57 -96 3 -26 8 -35 16 -29 20 16 102 20 127 6 34 -19 39 -17 39 11 0 15 -5 25 -12 24 -28 -3 -36 2 -31 21 3 11 14 20 24 20 32 0 29 16 -7 33 -34 17 -41 17 -99 10z"/>
</g>
<g id="layer110" fill="#96b4b2" stroke="none">
<path d="M260 814 c-8 -1 -55 -8 -103 -15 l-88 -11 -29 -58 c-29 -58 -30 -60 -19 -142 14 -100 25 -120 90 -159 65 -41 92 -89 49 -89 -11 0 -20 -5 -20 -12 0 -6 -10 -2 -23 10 l-23 22 4 -35 c5 -40 8 -42 36 -17 40 35 225 100 246 87 24 -15 53 88 85 300 l6 40 -86 43 c-82 41 -92 44 -125 36z"/>
<path d="M204 303 c-37 -5 -54 -34 -54 -95 0 -31 3 -38 13 -31 21 17 102 21 128 7 34 -19 39 -17 39 10 0 19 -4 23 -19 19 -10 -3 -22 0 -25 5 -10 17 5 42 25 42 28 0 23 17 -11 35 -29 15 -36 15 -96 8z"/>
</g>
<g id="layer111" fill="#d2f5f5" stroke="none">
<path d="M260 814 c-8 -1 -55 -8 -103 -15 l-88 -11 -29 -59 -30 -58 14 -93 c12 -80 17 -95 42 -116 l28 -25 15 31 c17 37 27 41 110 49 76 7 79 -12 3 -22 -86 -11 -92 -14 -92 -40 0 -13 11 -36 25 -51 14 -15 25 -35 25 -45 0 -16 5 -16 72 7 39 14 87 27 107 28 53 5 67 43 106 301 l6 40 -86 43 c-82 41 -92 44 -125 36z m87 -319 c23 -14 43 -28 43 -31 0 -8 -74 26 -90 41 -22 23 -2 18 47 -10z"/>
<path d="M100 314 c0 -22 2 -25 15 -14 12 10 13 16 4 26 -16 20 -19 18 -19 -12z"/>
<path d="M214 297 c-33 -8 -43 -17 -53 -42 -6 -17 -11 -40 -11 -51 0 -18 5 -20 58 -14 38 5 68 2 90 -7 31 -13 32 -12 32 10 0 18 -5 23 -22 23 -17 -1 -24 5 -26 22 -3 17 2 22 20 22 23 1 23 1 -5 25 -15 14 -31 24 -35 24 -4 -1 -25 -7 -48 -12z"/>
</g>


</svg>