<!DOCTYPE svg PUBLIC "-//W3C//DTD SVG 20010904//EN" "http://www.w3.org/TR/2001/REC-SVG-20010904/DTD/svg10.dtd">
<svg version="1.0" xmlns="http://www.w3.org/2000/svg" width="194px" height="150px" viewBox="0 0 1940 1500" preserveAspectRatio="xMidYMid meet">
<g id="layer101" fill="#111111" stroke="none">
 <path d="M1245 1474 c-37 -20 -55 -42 -55 -68 0 -18 -85 -63 -518 -280 -515 -257 -518 -259 -547 -243 -28 14 -33 13 -78 -10 -41 -20 -48 -28 -44 -46 3 -12 9 -53 12 -92 11 -102 64 -227 125 -292 45 -49 81 -69 431 -243 l382 -190 91 0 c122 0 221 33 336 111 287 194 511 582 549 954 6 54 9 100 8 101 -17 15 -632 314 -644 314 -10 -1 -31 -8 -48 -16z"/>
 </g>
<g id="layer102" fill="#acd8e7" stroke="none">
 <path d="M1238 1469 c-21 -11 -39 -23 -39 -27 -1 -4 -3 -43 -4 -87 -2 -101 -40 -235 -104 -370 -120 -252 -321 -453 -519 -519 -147 -49 -247 -28 -345 72 -64 65 -90 150 -81 259 6 71 6 71 -22 86 -27 14 -32 13 -77 -10 -41 -20 -48 -28 -44 -46 3 -12 9 -53 12 -92 11 -102 64 -227 125 -292 45 -49 81 -69 431 -243 l382 -190 91 0 c122 0 221 33 336 111 287 194 511 582 549 954 6 54 9 100 8 101 -17 15 -632 314 -644 314 -10 -1 -35 -10 -55 -21z"/>
 </g>
<g id="layer103" fill="#cdfeff" stroke="none">
 <path d="M1290 1478 c0 -60 -26 -213 -52 -303 -35 -127 -118 -309 -182 -398 -24 -34 -45 -67 -47 -74 -10 -30 -203 -211 -279 -262 -116 -78 -213 -111 -325 -111 l-86 0 321 -160 320 -160 88 0 c117 0 218 33 332 111 287 194 511 582 549 954 6 54 9 100 8 101 -10 9 -629 314 -637 314 -5 0 -10 -6 -10 -12z"/>
 </g>

</svg>