<!DOCTYPE svg PUBLIC "-//W3C//DTD SVG 20010904//EN" "http://www.w3.org/TR/2001/REC-SVG-20010904/DTD/svg10.dtd">
<svg version="1.0" xmlns="http://www.w3.org/2000/svg" width="26px" height="25px" viewBox="0 0 260 250" preserveAspectRatio="xMidYMid meet">
<g id="layer101" fill="#1c1f22" stroke="none">
<path d="M81 235 c-57 -25 -81 -55 -81 -101 0 -34 4 -43 25 -52 14 -6 25 -18 25 -26 0 -7 14 -19 30 -26 17 -7 30 -16 30 -21 0 -15 23 -10 88 21 l62 29 0 46 c0 25 -5 45 -11 45 -5 0 -15 14 -21 31 -9 25 -15 30 -34 25 -22 -6 -54 15 -54 35 0 13 -19 11 -59 -6z"/>
</g>
<g id="layer102" fill="#3c4148" stroke="none">
<path d="M81 235 c-57 -25 -81 -55 -81 -101 0 -34 4 -43 25 -52 14 -6 25 -18 25 -26 0 -7 14 -19 30 -26 17 -7 30 -16 30 -21 0 -15 23 -10 88 21 l62 29 0 46 c0 25 -5 45 -11 45 -5 0 -15 14 -21 31 -9 25 -15 30 -34 25 -22 -6 -54 15 -54 35 0 13 -19 11 -59 -6z m133 -176 c-8 -14 -24 -10 -24 6 0 9 6 12 15 9 8 -4 12 -10 9 -15z"/>
</g>
<g id="layer103" fill="#914b42" stroke="none">
<path d="M47 184 c-43 -22 -47 -28 -47 -59 l0 -35 47 24 48 24 77 -39 c43 -21 80 -39 83 -39 3 0 5 15 5 33 0 31 -4 35 -83 74 l-83 41 -47 -24z"/>
</g>
<g id="layer104" fill="#677282" stroke="none">
<path d="M106 241 c-3 -4 1 -17 9 -27 16 -23 40 -7 29 19 -7 18 -29 23 -38 8z"/>
<path d="M186 201 c-3 -4 1 -17 9 -27 16 -23 40 -7 29 19 -7 18 -29 23 -38 8z"/>
</g>
<g id="layer105" fill="#ef5435" stroke="none">
<path d="M43 177 c-37 -18 -43 -25 -43 -53 l0 -33 46 26 47 26 83 -41 84 -42 0 30 c0 27 -7 33 -80 70 -44 22 -83 40 -87 39 -5 0 -27 -10 -50 -22z"/>
<path d="M95 108 c-45 -24 -58 -63 -25 -73 11 -3 27 -13 35 -22 15 -14 20 -14 56 2 26 12 38 23 34 33 -3 7 -5 18 -5 23 0 5 -17 17 -38 28 -29 15 -42 17 -57 9z"/>
</g>
<g id="layer106" fill="#afa8ab" stroke="none">
<path d="M110 233 c0 -14 2 -15 9 -4 7 11 11 10 21 -5 11 -18 11 -18 6 -1 -3 10 -6 21 -6 23 0 2 -7 4 -15 4 -8 0 -15 -8 -15 -17z"/>
<path d="M190 199 c0 -5 4 -8 9 -4 6 3 15 -3 21 -12 11 -17 11 -17 6 0 -3 10 -6 21 -6 23 0 2 -7 4 -15 4 -8 0 -15 -5 -15 -11z"/>
<path d="M103 113 c-21 -8 -15 -51 7 -58 25 -8 40 1 40 25 0 21 -28 40 -47 33z"/>
<path d="M60 77 c-12 -25 -12 -30 1 -38 19 -12 39 -11 39 1 0 6 -4 10 -9 10 -5 0 -11 12 -13 28 l-4 27 -14 -28z"/>
<path d="M160 76 c0 -8 -3 -21 -6 -29 -6 -17 17 -29 35 -18 8 6 9 15 2 34 -11 29 -31 37 -31 13z"/>
</g>
<g id="layer107" fill="#f0ada0" stroke="none">
<path d="M103 113 c-7 -3 -13 -9 -13 -14 0 -6 6 -7 13 -3 7 5 7 1 -2 -10 -12 -14 -12 -19 -2 -26 22 -13 46 -5 49 18 3 22 -24 43 -45 35z"/>
<path d="M160 76 c0 -8 -3 -21 -6 -30 -4 -11 0 -16 14 -16 27 0 32 9 21 38 -9 24 -29 30 -29 8z"/>
<path d="M50 56 c0 -15 37 -32 47 -22 7 7 -22 36 -36 36 -6 0 -11 -6 -11 -14z"/>
</g>
<g id="layer108" fill="#d2d1d1" stroke="none">
<path d="M109 115 c-1 -3 -2 -8 -3 -12 -1 -5 -4 -13 -8 -19 -10 -15 1 -24 30 -24 18 0 23 4 18 16 -3 9 -6 19 -6 24 0 8 -29 22 -31 15z"/>
<path d="M50 56 c0 -16 27 -29 42 -20 5 3 1 12 -9 20 -23 17 -33 17 -33 0z"/>
</g>
<g id="layer109" fill="#fefdfd" stroke="none">
<path d="M108 89 c-4 -25 -1 -29 20 -29 18 0 23 4 18 16 -3 9 -6 19 -6 24 0 4 -6 10 -14 13 -10 4 -15 -4 -18 -24z"/>
<path d="M157 64 c-3 -17 0 -28 10 -31 21 -8 32 9 22 35 -11 29 -26 28 -32 -4z"/>
<path d="M61 50 c-9 -5 -8 -9 5 -14 9 -4 21 -3 26 2 12 12 -15 23 -31 12z"/>
</g>


</svg>